<svg width="67" height="68" viewBox="0 0 67 68" fill="none" xmlns="http://www.w3.org/2000/svg">
<path d="M30.9971 58.8939C30.0828 59.8656 28.6507 60.8932 27.5638 61.149C26.4769 61.4047 25.4646 61.4093 24.527 61.1629C23.5894 60.9165 22.801 60.4701 22.1713 59.8145C21.5369 59.1635 21.2057 58.401 21.1777 57.5269C21.201 56.1505 21.4949 54.7184 22.064 53.2259C22.6284 51.7333 23.2768 50.2222 24.0046 48.6878C24.7323 47.1534 25.4413 45.6144 26.1364 44.066C26.8314 42.5177 27.3119 40.9972 27.5778 39.5C27.8437 38.0028 27.811 36.5475 27.4798 35.134C27.1486 33.7205 26.3136 32.3907 24.9795 31.1539C24.1212 30.3588 23.0856 29.6427 21.8774 29.0011C20.6692 28.3594 19.2978 28.0293 17.7537 28.0014C16.2144 27.9735 14.5164 28.3687 12.6645 29.1824C10.8079 29.9961 8.78335 31.4654 6.58623 33.581C4.57571 35.5199 3.06432 37.3658 2.05672 39.1234C1.04913 40.881 0.414718 42.4944 0.162819 43.9544C-0.0937443 45.4191 -0.0470964 46.6884 0.302763 47.7718C0.652622 48.8552 1.16575 49.7014 1.84681 50.3105C2.5232 50.9197 3.28823 51.2637 4.14188 51.3474C4.99088 51.4311 5.78855 51.18 6.53492 50.5988C7.51453 49.8828 8.06497 49.1249 8.19559 48.3251C8.3262 47.5254 8.2469 46.7117 7.96235 45.8794C7.67779 45.0518 7.29528 44.1869 6.81947 43.2988C6.339 42.4061 5.97515 41.4855 5.72791 40.5276C5.48068 39.5698 5.45269 38.6073 5.63928 37.6355C5.83054 36.6637 6.46028 35.6594 7.53785 34.6272C8.45215 33.7484 9.42709 33.2137 10.4627 33.0277C11.4983 32.8417 12.4872 32.8789 13.4248 33.1486C14.3624 33.4183 15.1881 33.8739 15.9018 34.5156C16.6155 35.1572 17.0773 35.8919 17.2966 36.7242C17.5765 37.8076 17.5158 38.9932 17.1147 40.2812C16.7135 41.5691 16.1817 42.9222 15.524 44.345C14.8662 45.7678 14.1852 47.2232 13.4808 48.7111C12.7764 50.199 12.2679 51.6915 11.9554 53.1887C11.6429 54.6859 11.6195 56.1691 11.8948 57.6431C12.1653 59.1124 12.949 60.5398 14.2365 61.9115C15.342 63.0972 16.5969 63.9388 18.0056 64.4363C19.4097 64.9291 20.8838 65.1012 22.4325 64.9431C23.9766 64.785 25.5486 64.2968 27.1486 63.4784C28.7486 62.6554 30.5026 61.3303 32 59.8889" fill="#9A863F"/>
<path d="M58.728 36.0343C59.7262 36.9771 60.7817 38.454 61.0444 39.5748C61.307 40.6957 61.3118 41.7396 61.0635 42.7065C60.8104 43.6734 60.3519 44.4864 59.6785 45.1359C59.0098 45.7901 58.2266 46.1316 57.3287 46.1605C55.915 46.1365 54.444 45.8334 52.9109 45.2465C51.3779 44.6644 49.8257 43.9958 48.2496 43.2453C46.6735 42.4949 45.0927 41.7637 43.5023 41.0469C41.9119 40.3301 40.3502 39.8346 38.8123 39.5604C37.2745 39.2862 35.7796 39.3199 34.3277 39.6614C32.8758 40.003 31.5099 40.8641 30.2395 42.2399C29.4228 43.125 28.6873 44.193 28.0282 45.4389C27.3692 46.6849 27.0301 48.0992 27.0014 49.6915C26.9728 51.2789 27.3787 53.03 28.2145 54.9398C29.0551 56.8544 30.5595 58.9422 32.7326 61.2079C34.7241 63.2813 36.6202 64.8399 38.4255 65.879C40.2308 66.9181 41.888 67.5723 43.3877 67.8321C44.8921 68.0967 46.196 68.0486 47.3088 67.6878C48.4215 67.327 49.2908 66.7978 49.9164 66.0955C50.5421 65.3979 50.8955 64.609 50.9815 63.7287C51.0674 62.8532 50.8095 62.0306 50.2125 61.2609C49.477 60.2506 48.6986 59.683 47.8771 59.5483C47.0556 59.4136 46.2198 59.4954 45.3649 59.7888C44.5148 60.0823 43.6265 60.4767 42.7143 60.9674C41.7973 61.4629 40.8517 61.8381 39.8678 62.0931C38.884 62.3481 37.8954 62.3769 36.8972 62.1845C35.899 61.9873 34.8674 61.3378 33.8071 60.2266C32.9045 59.2837 32.3553 58.2783 32.1642 57.2104C31.9732 56.1424 32.0114 55.1226 32.2884 54.1557C32.5654 53.1887 33.0334 52.3373 33.6925 51.6013C34.3516 50.8652 35.1062 50.389 35.9611 50.1629C37.0739 49.8743 38.2918 49.9368 39.6147 50.3505C40.9376 50.7642 42.3274 51.3126 43.7889 51.9909C45.2503 52.6692 46.7452 53.3715 48.2735 54.0979C49.8018 54.8243 51.3349 55.3487 52.8727 55.671C54.4106 55.9933 55.9341 56.0173 57.4433 55.7335C58.9525 55.4545 60.4187 54.6463 61.8276 53.3186C63.0503 52.1785 63.9147 50.8845 64.421 49.4317C64.9272 47.9837 65.1039 46.4636 64.9415 44.8665C64.7792 43.2742 64.2777 41.653 63.4371 40.003C62.5966 38.353 61.2306 36.5442 59.7501 35" fill="#9A863F"/>
<path d="M36.0028 9.10226C36.9169 8.13035 38.3488 7.10264 39.4356 6.84688C40.5223 6.59111 41.5344 6.58646 42.4719 6.83293C43.4094 7.07939 44.1976 7.52582 44.8273 8.18151C45.4616 8.83254 45.7927 9.59519 45.8207 10.4694C45.7974 11.8459 45.5036 13.2782 44.9346 14.7709C44.3702 16.2637 43.7219 17.775 42.9943 19.3096C42.2667 20.8442 41.5531 22.3834 40.8628 23.932C40.1678 25.4805 39.6874 27.0011 39.4216 28.4985C39.1557 29.9959 39.1884 31.4514 39.5195 32.8651C39.8507 34.2788 40.6855 35.6088 42.0195 36.8457C42.8823 37.6409 43.9131 38.3571 45.1211 38.9988C46.3291 39.6405 47.705 39.9707 49.2442 39.9986C50.7833 40.0265 52.4811 39.6312 54.3374 38.8175C56.1937 37.999 58.2179 36.5342 60.4147 34.4183C62.425 32.4791 63.9361 30.633 64.9436 28.8752C65.951 27.1174 66.5853 25.5037 66.8372 24.0436C67.0937 22.5787 67.0471 21.3092 66.6973 20.2257C66.3475 19.1422 65.8344 18.2958 65.1535 17.6866C64.4725 17.0775 63.7123 16.7333 62.8587 16.6496C62.0099 16.5659 61.2123 16.817 60.466 17.3983C59.4866 18.1145 58.9362 18.8725 58.8056 19.6723C58.675 20.4722 58.7543 21.286 59.0388 22.1183C59.3233 22.9461 59.7058 23.811 60.1815 24.6992C60.6619 25.5921 61.0257 26.5128 61.2729 27.4708C61.5201 28.4288 61.5481 29.3914 61.3615 30.3633C61.175 31.3352 60.5407 32.3396 59.4633 33.372C58.5491 34.2509 57.5743 34.7857 56.5389 34.9717C55.5034 35.1577 54.5146 35.1205 53.5725 34.8508C52.635 34.5811 51.8094 34.1253 51.0958 33.4836C50.3822 32.8419 49.9205 32.1071 49.7013 31.2747C49.4214 30.1912 49.4821 29.0054 49.8832 27.7173C50.2843 26.4291 50.816 25.0759 51.4736 23.6529C52.1313 22.23 52.8122 20.7744 53.5165 19.2863C54.2208 17.7983 54.7292 16.3055 55.0417 14.8081C55.3542 13.3107 55.3775 11.8273 55.1023 10.3578C54.8318 8.88835 54.0482 7.46071 52.7609 6.08889C51.6555 4.89842 50.4009 4.05672 48.9923 3.56379C47.5884 3.07086 46.1146 2.8988 44.5661 3.05691C43.0223 3.21502 41.4505 3.7033 39.8507 4.52175C38.2509 5.34019 36.4972 6.67017 35 8.11175" fill="#9A863F"/>
<path d="M9.10149 31.9659C8.12971 31.0231 7.10213 29.5465 6.8464 28.4258C6.59066 27.3051 6.58601 26.2614 6.83245 25.2946C7.07888 24.3278 7.52525 23.515 8.18086 22.8656C8.83181 22.2115 9.59436 21.87 10.4685 21.8411C11.8448 21.8652 13.2769 22.1682 14.7695 22.755C16.262 23.337 17.7731 24.0056 19.3075 24.7559C20.8419 25.5062 22.381 26.2421 23.9293 26.954C25.4777 27.6707 26.9981 28.1661 28.4953 28.4403C29.9925 28.7144 31.4479 28.6807 32.866 28.3392C34.2795 27.9977 35.6093 27.1368 36.8461 25.7612C37.6412 24.8761 38.3573 23.8084 38.9989 22.5626C39.6406 21.3168 39.9707 19.8979 39.9986 18.3107C40.0265 16.7234 39.6313 14.9726 38.8176 13.0583C38.0039 11.144 36.5346 9.05651 34.419 6.79106C32.4801 4.71801 30.6342 3.15962 28.8766 2.12069C27.119 1.08176 25.5056 0.427615 24.0456 0.167883C22.5809 -0.0966597 21.3116 -0.0485611 20.2282 0.312179C19.1448 0.672918 18.2986 1.202 17.6895 1.90424C17.0803 2.60648 16.7363 3.39049 16.6526 4.2707C16.5689 5.14609 16.82 5.96858 17.4012 6.73815C18.1172 7.74823 18.8751 8.31579 19.6749 8.45047C20.4746 8.58514 21.2883 8.50337 22.1206 8.20997C22.9482 7.91657 23.8131 7.52216 24.7012 7.03156C25.5939 6.53614 26.5145 6.16097 27.4724 5.90605C28.4302 5.65113 29.3927 5.62227 30.3598 5.81466C31.3316 6.00706 32.3359 6.6612 33.3682 7.77227C34.247 8.71501 34.7817 9.72027 34.9677 10.7881C35.1537 11.8558 35.1165 12.8755 34.8468 13.8471C34.5771 14.8139 34.1214 15.6653 33.4798 16.4012C32.8381 17.1371 32.0988 17.6133 31.2712 17.8393C30.1878 18.1279 29.0021 18.0654 27.7142 17.6517C26.4262 17.2381 25.0731 16.6898 23.6503 16.0116C22.2275 15.3334 20.7722 14.6311 19.2843 13.9049C17.7964 13.1786 16.3038 12.6543 14.8067 12.332C13.3095 12.0098 11.8262 11.9857 10.3569 12.2695C8.88296 12.5485 7.46015 13.3565 6.0885 14.684C4.90283 15.824 4.06124 17.1178 3.56372 18.5704C3.07086 20.0182 2.89882 21.5381 3.05691 23.135C3.215 24.727 3.70321 26.348 4.52156 27.9977C5.3399 29.6475 6.66971 31.456 8.11111 33" fill="#9A863F"/>
</svg>
