<svg width="76" height="70" viewBox="0 0 76 70" fill="none" xmlns="http://www.w3.org/2000/svg">
<path d="M46.495 36.4224C46.5118 34.6795 45.4476 33.4057 43.5286 33.456C39.6572 33.5482 35.7774 33.4895 31.8976 33.4979C30.0205 33.4979 29.1071 34.4029 29.1071 36.2884V56.7098C29.0904 58.4527 30.1546 59.7265 32.0736 59.6762C35.945 59.584 39.8248 59.6427 43.7046 59.6343C45.5817 59.6343 46.495 58.7293 46.495 56.8438V36.4224ZM43.2521 57.0198C39.6237 57.0114 35.9869 57.0198 32.3585 57.0366C31.9479 57.0366 31.7551 56.936 31.7551 56.4751V36.7409C31.7467 36.28 31.8724 36.104 32.3501 36.104C35.9785 36.1124 39.6153 36.104 43.2437 36.0873C43.6543 36.0873 43.8471 36.1878 43.8471 36.6487V56.3829C43.8554 56.8438 43.7297 57.0198 43.2521 57.0198Z" fill="#9A863F"/>
<path d="M73.9804 32.1991C71.5419 29.8695 69.0699 27.5819 66.6063 25.2774C66.4135 25.1015 66.1957 24.9422 65.961 24.8333C65.4164 24.5735 64.9136 24.7244 64.5113 25.1434C64.1091 25.5707 64.0169 26.0903 64.3186 26.6098C64.4694 26.878 64.6957 27.1042 64.9219 27.3221C66.4303 28.7466 67.947 30.1544 69.4554 31.5706C70.3855 32.4421 71.3408 33.2884 72.2374 34.2018C73.3268 35.308 73.1257 36.875 71.8436 37.5537C71.0056 37.9978 70.1006 37.78 69.1705 36.9169C59.1148 27.4981 49.0675 18.0876 39.0118 8.66883C38.0398 7.75544 37.4616 7.76382 36.4728 8.69397C26.6434 17.9619 16.814 27.2299 6.98456 36.4895C6.60747 36.8414 6.222 37.2102 5.79464 37.4951C4.54606 38.333 2.76118 37.4699 2.669 35.97C2.61035 34.9895 3.21369 34.4113 3.84216 33.8164C14.5095 23.7775 25.1686 13.7386 35.8192 3.69965C37.294 2.30862 38.199 2.29186 39.6571 3.65775C45.1542 8.81128 50.6597 13.9648 56.1568 19.1183C56.8607 19.7803 57.5645 20.434 58.2684 21.0876C59.0142 21.7747 59.8355 21.825 60.3718 21.2384C60.8997 20.6602 60.774 19.839 60.0533 19.1435C60.0031 19.0932 59.9444 19.0429 59.8941 18.9926C53.6931 13.1855 47.4837 7.36997 41.2828 1.56282C39.0537 -0.523726 36.456 -0.523726 34.2103 1.57958C31.1182 4.47897 28.0428 7.39511 24.9591 10.2945C24.6909 10.5459 24.4144 10.7973 24.1378 11.0487C24.0792 11.0235 24.0122 10.9984 23.9535 10.9732C23.9535 10.5543 23.9703 10.1269 23.9535 9.70791C23.9032 8.40906 22.8055 7.37835 21.5066 7.36997C19.1771 7.34483 16.8475 7.36997 14.5179 7.36997C13.5878 7.36997 12.7833 7.69678 12.4146 8.60179C12.2219 9.07105 12.18 9.63249 12.18 10.152C12.18 13.9481 12.18 17.7524 12.2135 21.5485C12.2135 22.0261 12.0208 22.487 11.6688 22.8222C8.32531 25.9478 5.00695 29.0902 1.67182 32.2242C0.448378 33.3722 -0.23038 34.7884 0.0712903 36.5733C0.347821 38.2073 1.50422 39.6068 3.04609 40.2017C4.80583 40.8805 6.4734 40.5034 7.91471 39.2045C9.00407 38.2241 10.0599 37.1934 11.1325 36.1878C11.3504 35.9867 11.5766 35.7856 11.9202 35.4672V67.5028C11.9202 68.8771 13.0347 70 14.4174 70H61.2181C62.5924 70 63.7153 68.8855 63.7153 67.5028V35.4337C64.0337 35.7186 64.2348 35.8945 64.4192 36.0705C65.4918 37.0761 66.5476 38.09 67.637 39.0788C69.1956 40.495 71.3408 40.8218 73.0503 39.9084C76.0251 38.333 76.4943 34.5957 73.9804 32.1991ZM14.8531 10.0682H21.3223C21.3223 11.2414 21.3306 12.381 21.3139 13.5291C21.3139 13.6715 21.1882 13.8391 21.0793 13.948C19.1016 15.8167 17.124 17.677 15.1464 19.5289C15.0961 19.5708 15.0291 19.5876 14.8699 19.6546V10.0682H14.8531ZM60.4723 67.2934H15.2134C14.8866 67.2934 14.6269 67.042 14.6269 66.7151C14.6352 60.9834 14.6101 37.7548 14.6436 33.4141C14.6436 33.0706 14.9118 32.66 15.1799 32.4086C21.825 26.1238 28.4869 19.8558 35.1488 13.5877C36.0035 12.7833 36.8583 11.9704 37.7717 11.1073C39.7912 12.9928 41.7185 14.7944 43.6458 16.6044C49.2351 21.8334 54.816 27.0707 60.4137 32.2913C60.7907 32.6432 61.0086 33.1376 61.0086 33.6572C61.0086 42.5397 61.0254 57.5645 61.0505 66.7151C61.0505 67.042 60.7907 67.2934 60.4639 67.2934H60.4723Z" fill="#9A863F"/>
</svg>
