<svg width="90" height="62" viewBox="0 0 90 62" fill="none" xmlns="http://www.w3.org/2000/svg">
<g clip-path="url(#clip0_356_11)">
<path d="M86.3633 15.3746H85.4122L84.9869 10.5294C84.8862 9.34328 84.2148 8.29144 83.1406 7.676C82.4692 7.29554 81.6859 7.17245 80.9138 7.23959L79.9403 7.32911L79.2018 3.12173C79.0675 2.36082 78.743 1.63347 78.2059 1.09636C77.3331 0.223553 76.147 -0.145712 74.972 0.0557054L60.47 2.61818C59.8657 2.73008 59.4517 3.30076 59.5636 3.91621C59.6755 4.52046 60.2462 4.92329 60.8616 4.82258L75.3637 2.26011C75.7329 2.19297 76.1022 2.28249 76.4043 2.49509C76.7064 2.7077 76.9079 3.03221 76.975 3.39028L77.7023 7.51934L75.7665 7.68719C75.1511 7.74314 74.6923 8.28025 74.7482 8.89569C74.8042 9.51113 75.3525 9.98111 75.9567 9.91397L78.094 9.72374L79.213 9.62303L80.332 9.52232L81.2495 9.44399C81.63 9.41042 81.9769 9.52232 82.2678 9.7685C82.5476 10.0035 82.7266 10.3392 82.7602 10.7084L83.163 15.3522H13.6516L68.0119 10.5965C68.6274 10.5406 69.0862 10.0035 69.0302 9.38804C68.9743 8.7726 68.426 8.31382 67.8217 8.36977L13.8418 13.1031L52.2902 6.33321C52.8944 6.22131 53.3085 5.65063 53.1966 5.03519C53.0847 4.43094 52.5028 4.01691 51.8985 4.12881L2.46177 12.8457C1.62253 12.9912 0.906378 13.4276 0.380455 14.0318C0.134278 14.3116 0 14.6808 0 15.0501V22.2676L0 43.0359C0 43.6514 0.503543 44.1549 1.11899 44.1549C1.42111 44.1549 1.68967 44.0318 1.89109 43.8416C2.10369 43.6402 2.23797 43.3493 2.23797 43.0359V19.0001C2.23797 18.228 2.8646 17.6126 3.62551 17.6126H86.3633C87.1354 17.6126 87.7508 18.2392 87.7508 19.0001V58.0415C87.7508 58.8024 87.1242 59.4291 86.3633 59.4291H3.62551C2.8646 59.4291 2.23797 58.8024 2.23797 58.0415V51.6969C2.23797 51.0814 1.73443 50.5779 1.11899 50.5779C0.503543 50.5779 0 51.0814 0 51.6969V58.0415C0 60.0445 1.62253 61.667 3.62551 61.667H86.3633C88.3663 61.667 89.9888 60.0445 89.9888 58.0415V19.0001C89.9888 16.9971 88.3663 15.3746 86.3633 15.3746Z" fill="#9A863F"/>
<path d="M44.9943 22.0216C35.8969 22.0216 28.4893 29.4293 28.4893 38.5267C28.4893 41.8277 29.474 44.8937 31.1524 47.4786C31.3762 47.8254 31.6224 48.1611 31.8686 48.4856C32.126 48.8325 32.4057 49.157 32.6855 49.4815C33.0323 49.8732 33.4016 50.2536 33.7821 50.6005C34.1625 50.9586 34.5654 51.2943 34.9906 51.6188C35.4605 51.9769 35.9417 52.3126 36.4452 52.6147C38.9406 54.1365 41.8611 55.0205 44.9943 55.0205C49.1569 55.0205 52.9503 53.4651 55.8485 50.9138C56.296 50.5222 56.7101 50.1082 57.1129 49.683C57.471 49.2913 57.8067 48.8885 58.1312 48.4745C59.0264 47.2995 59.7649 46.0015 60.3244 44.6028C60.4811 44.1999 60.6377 43.7971 60.7608 43.3943C60.8839 43.0026 60.9734 42.5998 61.0629 42.2081C61.3315 41.022 61.4881 39.8023 61.4881 38.5379C61.4881 29.4405 54.0805 22.0328 44.9831 22.0328L44.9943 22.0216ZM58.6459 42.6222C58.5228 43.0362 58.3774 43.439 58.2207 43.8307C58.0529 44.2559 57.8626 44.6699 57.65 45.0615C56.9339 46.4379 56.0163 47.6688 54.9085 48.743C54.4385 49.1906 53.935 49.6158 53.4203 49.9963C52.7377 50.4998 52.0215 50.9362 51.2606 51.3055C49.3695 52.2342 47.2435 52.7714 44.9943 52.7714C43.6179 52.7714 42.2863 52.5699 41.0219 52.2007C40.205 51.9657 39.4217 51.6524 38.6832 51.2831C38.1013 50.9922 37.5307 50.6789 36.9935 50.3096C36.4117 49.9179 35.8746 49.4703 35.3598 48.9892C35.0241 48.6871 34.7108 48.3626 34.4087 48.0269C34.1178 47.7135 33.8492 47.3778 33.5918 47.031C31.8126 44.6475 30.7384 41.7046 30.7384 38.5043C30.7384 30.6378 37.139 24.2372 45.0055 24.2372C52.872 24.2372 59.2725 30.6378 59.2725 38.5043C59.2725 39.9254 59.0599 41.3018 58.6683 42.611L58.6459 42.6222Z" fill="#9A863F"/>
<path d="M68.7617 41.9732C69.3436 42.3984 70.0261 42.6669 70.7759 42.7564C70.9437 42.7788 71.1116 42.8124 71.2794 42.8124C71.9732 42.8124 72.6222 42.6334 73.2153 42.3312C73.8755 41.9955 74.4349 41.5144 74.849 40.9101C75.0951 40.5409 75.2742 40.1156 75.3973 39.6792C75.498 39.31 75.5763 38.9295 75.5763 38.5267C75.5763 36.1656 73.6517 34.241 71.2906 34.241C68.9295 34.241 67.0049 36.1656 67.0049 38.5267C67.0049 39.4554 67.307 40.3171 67.8105 41.0108C68.0791 41.3801 68.4036 41.7046 68.7729 41.9732H68.7617ZM69.2317 38.5155C69.2317 37.3853 70.1492 36.4677 71.2794 36.4677C72.4096 36.4677 73.3271 37.3853 73.3271 38.5155C73.3271 39.1981 72.9803 39.8135 72.4655 40.1828C72.1298 40.4178 71.727 40.5632 71.2794 40.5632C71.0892 40.5632 70.9213 40.5297 70.7423 40.4849C69.8695 40.2499 69.2317 39.4554 69.2317 38.5155Z" fill="#9A863F"/>
<path d="M14.6362 38.5267C14.6362 40.8877 16.5609 42.8124 18.9219 42.8124C21.283 42.8124 23.2077 40.8877 23.2077 38.5267C23.2077 36.1656 21.283 34.241 18.9219 34.241C16.5609 34.241 14.6362 36.1656 14.6362 38.5267ZM20.9697 38.5267C20.9697 39.6569 20.0521 40.5744 18.9219 40.5744C17.7918 40.5744 16.8742 39.6569 16.8742 38.5267C16.8742 37.3965 17.7918 36.4789 18.9219 36.4789C20.0521 36.4789 20.9697 37.3965 20.9697 38.5267Z" fill="#9A863F"/>
<path d="M30.6714 21.4062H12.611C11.9956 21.4062 11.492 21.9097 11.492 22.5252C11.492 24.8639 9.58974 26.7661 7.25107 26.7661C6.63562 26.7661 6.13208 27.2697 6.13208 27.8851V49.1682C6.13208 49.4703 6.25517 49.7389 6.4454 49.9403C6.64681 50.1529 6.92656 50.2872 7.25107 50.2872C7.39653 50.2872 7.53081 50.3208 7.67628 50.332C8.50433 50.4215 9.26524 50.7348 9.88068 51.2271C10.2276 51.5069 10.5409 51.8314 10.7871 52.2007C10.8654 52.3238 10.9325 52.458 10.9997 52.5923C11.1116 52.8049 11.2011 53.0175 11.2682 53.2525C11.313 53.398 11.3689 53.5323 11.4025 53.6777C11.4585 53.9463 11.492 54.226 11.492 54.517C11.492 54.6177 11.5256 54.696 11.548 54.7855C11.6711 55.2667 12.0851 55.636 12.611 55.636H30.6714C31.2869 55.636 31.7904 55.1324 31.7904 54.517C31.7904 53.9015 31.2869 53.398 30.6714 53.398H13.6293C13.5957 53.2078 13.5398 53.0399 13.495 52.8497C13.4502 52.693 13.4167 52.5252 13.3607 52.3797C13.2936 52.1783 13.1929 51.9769 13.1034 51.7866C12.9355 51.4286 12.7453 51.0817 12.5103 50.7572C11.5368 49.4032 10.0709 48.4409 8.37005 48.1388V28.9034C11.0444 28.4334 13.1705 26.3185 13.6293 23.6442H30.6714C31.2869 23.6442 31.7904 23.1406 31.7904 22.5252C31.7904 21.9097 31.2869 21.4062 30.6714 21.4062Z" fill="#9A863F"/>
<path d="M58.2097 54.517C58.2097 55.1324 58.7133 55.6359 59.3287 55.6359H77.3891C78.0046 55.6359 78.5081 55.1324 78.5081 54.517C78.5081 52.1783 80.4104 50.276 82.7491 50.276C83.3645 50.276 83.868 49.7725 83.868 49.157V27.8739C83.868 27.5158 83.689 27.2025 83.4205 27.0011C83.2302 26.8556 83.0064 26.7549 82.7491 26.7549C82.57 26.7549 82.4022 26.7214 82.2343 26.699C81.8203 26.643 81.4175 26.5535 81.0482 26.3857C79.56 25.7255 78.5193 24.2372 78.5193 22.514C78.5193 21.8985 78.0158 21.395 77.4003 21.395H59.3399C58.7244 21.395 58.2209 21.8985 58.2209 22.514C58.2209 23.1294 58.7244 23.633 59.3399 23.633H76.382C76.8408 26.2626 78.8886 28.3327 81.4846 28.8586C81.5406 28.8586 81.5853 28.8922 81.6413 28.9034V48.1387C80.9363 48.2618 80.2873 48.4968 79.683 48.8325C77.9822 49.7613 76.7289 51.4286 76.382 53.4092H59.3399C58.7244 53.4092 58.2209 53.9127 58.2209 54.5281L58.2097 54.517Z" fill="#9A863F"/>
</g>
<defs>
<clipPath id="clip0_356_11">
<rect width="90" height="61.6673" fill="white"/>
</clipPath>
</defs>
</svg>
