<svg width="81" height="70" viewBox="0 0 81 70" fill="none" xmlns="http://www.w3.org/2000/svg">
<path d="M34.3173 37.1766C33.8014 37.7174 33.3105 38.1751 32.8861 38.691C32.7613 38.8491 32.778 39.1653 32.8112 39.3983C33.1524 41.6283 32.1455 43.8001 30.2234 44.9401C28.0599 46.2216 25.3639 45.9054 23.5333 44.0914C19.6806 40.2637 15.8446 36.4277 12.0169 32.575C10.2196 30.761 9.85344 28.2481 11.0101 26.0929C12.1417 23.9627 14.4383 22.8893 16.918 23.297C17.1177 23.3303 17.409 23.2055 17.5587 23.0557C20.804 19.8355 24.0325 16.5986 27.2694 13.37C29.3164 11.323 31.3634 9.26774 33.4187 7.22909C33.6433 7.00442 33.7349 6.81303 33.6683 6.47187C33.219 4.13365 34.3423 1.81208 36.4392 0.672094C38.4862 -0.442927 41.0241 -0.168332 42.7216 1.47924C45.4509 4.13365 48.122 6.84632 50.818 9.54234C52.0329 10.7489 53.2477 11.9554 54.446 13.1786C57.4582 16.2408 56.1185 21.2917 51.9996 22.3484C51.3006 22.5315 50.5268 22.4816 49.7862 22.4566C49.3785 22.44 49.0706 22.4483 48.771 22.7811C48.4132 23.1889 47.9805 23.53 47.5312 23.9378L34.309 37.2015L34.3173 37.1766ZM31.2885 36.2196C36.3893 31.1188 41.5067 26.0014 46.5576 20.9588C42.7549 17.1561 38.9106 13.3201 35.1245 9.53402C30.0653 14.5932 24.9478 19.7107 19.872 24.7865C23.6664 28.5809 27.5024 32.4169 31.2968 36.2196H31.2885ZM38.9022 2.73572C37.8704 2.79396 36.9884 3.30987 36.5307 4.37496C36.0481 5.48166 36.2395 6.53844 37.0966 7.39551C40.9492 11.2731 44.8102 15.1341 48.6878 18.9867C49.7862 20.0768 51.4587 20.0602 52.5238 19.0117C53.6056 17.9466 53.6388 16.2491 52.5321 15.1341C48.6795 11.2565 44.8102 7.39551 40.9409 3.53454C40.4167 3.01031 39.776 2.74404 38.9022 2.7274V2.73572ZM13.0987 28.4894C13.0987 29.3714 13.3483 30.0288 13.8725 30.553C17.7418 34.4389 21.6111 38.3165 25.5137 42.1692C25.8881 42.5436 26.4623 42.8016 26.9865 42.9181C28.1598 43.176 29.3164 42.552 29.8573 41.4952C30.3981 40.4384 30.1984 39.1736 29.3081 38.2833C26.9532 35.9201 24.5984 33.5652 22.2435 31.2104C20.7207 29.6876 19.223 28.1565 17.6669 26.6671C16.8265 25.8599 15.7864 25.7185 14.7213 26.1844C13.6728 26.6421 13.1652 27.5075 13.0987 28.4977V28.4894Z" fill="#9A863F"/>
<path d="M4.65287 61.2078C3.85405 59.9763 3.56281 58.7032 3.87069 57.3052C4.32003 55.2666 6.24219 53.619 8.3391 53.6107C16.2108 53.594 24.0825 53.5774 31.9459 53.6107C35.4824 53.6273 37.6708 57.5881 35.9317 60.7169C35.8568 60.8583 35.7653 60.9998 35.6571 61.1912C35.8236 61.3077 35.9817 61.4158 36.1481 61.524C38.195 62.9219 39.2435 64.8524 39.2768 67.3238C39.2768 67.7065 39.2768 68.0893 39.2768 68.4721C39.2685 69.4456 38.7193 69.9865 37.7457 69.9865C30.4065 69.9865 23.059 69.9865 15.7199 69.9865C11.368 69.9865 7.00773 69.9865 2.65582 69.9865C1.53247 69.9865 1.04985 69.4789 1.00825 68.3639C0.95 66.6914 1.12474 65.0937 2.04838 63.6459C2.69742 62.6224 3.56281 61.8402 4.65287 61.1995V61.2078ZM3.77916 67.2239H36.5475C36.5225 66.9826 36.5225 66.7829 36.4809 66.5915C36.0649 64.478 34.4589 63.1716 32.2455 63.1716C24.1741 63.1716 16.111 63.1716 8.03954 63.1716C7.85648 63.1716 7.67341 63.1716 7.49035 63.1882C5.39344 63.3713 3.68763 65.2019 3.77084 67.2239H3.77916ZM20.18 56.3317C16.6602 56.3317 13.1487 56.3317 9.62886 56.3317C9.22945 56.3317 8.83004 56.315 8.43063 56.3317C7.56524 56.3899 6.9578 56.8392 6.62496 57.6297C6.30044 58.387 6.50847 59.2607 7.10758 59.8431C7.54028 60.2509 8.0645 60.4256 8.64698 60.4256C16.3023 60.4256 23.9494 60.4256 31.6048 60.4256C31.7462 60.4256 31.9127 60.4506 32.0375 60.384C32.4702 60.1677 32.9611 60.0012 33.2856 59.6767C33.8764 59.0859 33.968 58.3121 33.6185 57.5465C33.2523 56.7477 32.6033 56.3233 31.7129 56.3233C27.8686 56.3233 24.0243 56.3233 20.18 56.3233V56.3317Z" fill="#9A863F"/>
<path d="M29.6077 22.2902C28.3262 22.2902 27.6605 21.1668 28.1764 20.2681C28.2846 20.0851 28.4344 19.9187 28.5925 19.7606C30.3898 17.9549 32.1872 16.1492 34.0012 14.3602C34.2508 14.1189 34.5753 13.8942 34.9082 13.8027C35.474 13.6446 36.0482 13.9441 36.3394 14.46C36.639 14.9759 36.5641 15.625 36.0898 16.1159C35.1661 17.0728 34.2175 18.0048 33.2773 18.9451C32.3536 19.8687 31.4383 20.8173 30.4897 21.716C30.1901 21.9989 29.7824 22.1737 29.5993 22.2902H29.6077Z" fill="#9A863F"/>
<path d="M25.4638 26.1511C24.7065 26.1428 24.1324 25.5437 24.1407 24.7865C24.1407 24.0376 24.7482 23.4385 25.497 23.4385C26.2543 23.4385 26.895 24.0875 26.8617 24.8364C26.8284 25.5853 26.221 26.1595 25.4721 26.1428L25.4638 26.1511Z" fill="#9A863F"/>
<path d="M44.6937 26.875C42.1974 29.3464 39.7177 31.8427 37.2297 34.3307L44.6937 26.875Z" fill="#9A863F"/>
<path d="M36.9635 33.8565C36.9635 33.8565 41.149 38.7076 41.2572 38.8325C45.1847 43.3425 49.1039 47.8442 53.0231 52.3542C57.3418 57.3135 61.6188 62.3062 65.9957 67.2156C68.3339 69.8367 71.3211 70.5856 74.6912 69.5538C78.4107 68.4055 80.8487 64.4031 80.233 60.5671C79.8752 58.3453 78.7186 56.6395 77.0377 55.2C74.6579 53.1613 72.3113 51.0894 69.9482 49.0341C64.0153 43.8584 58.0907 38.691 52.1577 33.5153C51.0344 32.5334 44.2943 26.7087 44.2943 26.7087M38.9855 32.0092L42.4055 28.6974C42.4055 28.6974 67.1356 50.224 67.7514 50.7565C65.5047 53.0032 63.308 55.2083 61.0779 57.4467C60.587 56.8808 38.9938 32.0092 38.9938 32.0092H38.9855ZM77.4205 63.0134C76.9295 65.0604 75.5898 66.4251 73.5595 67.0242C71.7372 67.5651 69.9482 67.2738 68.6168 65.9425C66.6281 63.9537 64.8307 61.7653 62.9834 59.7017C65.3466 57.3468 67.6432 55.0502 69.9898 52.712C70.6139 53.2528 71.2962 53.852 71.9785 54.4428C73.1851 55.4995 74.3999 56.5397 75.5982 57.6048C77.2291 59.0526 77.9281 60.8749 77.4122 63.0051L77.4205 63.0134Z" fill="#9A863F"/>
</svg>
