<svg width="58" height="70" viewBox="0 0 58 70" fill="none" xmlns="http://www.w3.org/2000/svg">
<g clip-path="url(#clip0_196_605)">
<path d="M49.7553 40.659C48.6256 41.2831 47.614 41.8904 46.5602 42.4217C45.38 43.0205 44.4105 42.641 43.8625 41.4181C43.3483 40.2795 43.3483 40.2964 42.1343 40.6C41.3756 40.794 40.6085 40.9374 39.7655 41.1229C39.7655 41.494 39.7655 41.9072 39.7655 42.3205C39.7655 43.6446 39.0405 44.3952 37.7338 44.3783C34.7157 44.3361 31.8495 43.6446 29.1349 42.3289C28.039 41.7976 27.7187 40.8024 28.2582 39.7145C28.8062 38.6096 28.7977 38.6265 27.8114 37.859C27.1791 37.3699 26.5721 36.8386 25.8893 36.2651C25.6111 36.4928 25.316 36.7458 25.0041 36.9988C24.0262 37.7916 22.9977 37.7072 22.2137 36.7205C20.2916 34.3084 19.0439 31.5675 18.378 28.5566C18.1503 27.5277 18.7405 26.6506 19.7858 26.3807C20.2073 26.2711 20.7974 26.2795 20.9998 26.0012C21.2021 25.7145 21.0166 25.1578 21.0166 24.7108C21.0166 24.112 21.0166 23.5048 21.0756 22.906C21.1178 22.459 21.0082 22.2145 20.5277 22.1976C20.3675 22.1976 20.2073 22.147 20.0556 22.1133C18.6899 21.8012 18.1756 20.9325 18.5128 19.5663C19.221 16.741 20.4771 14.1771 22.2812 11.8916C23.1748 10.7614 24.1948 10.6602 25.2823 11.5964C25.5268 11.8072 25.7628 12.0181 26.0073 12.2289C27.0105 11.453 27.9884 10.694 29.0169 9.89277C28.8567 9.57229 28.6628 9.22651 28.4942 8.87229C27.9631 7.75904 28.3088 6.73856 29.43 6.21566C32.1277 4.96747 34.9602 4.30121 37.9445 4.31807C39.3608 4.31807 40.0605 5.05181 40.0268 6.45181C40.0015 7.5735 40.0015 7.56506 41.0553 7.80964C41.8899 8.00362 42.7245 8.23133 43.6265 8.45904C43.7867 8.10482 43.9553 7.7253 44.1239 7.34578C44.6466 6.1988 45.6919 5.80241 46.8047 6.39277C47.7742 6.90723 48.7184 7.47229 49.7806 8.08795C49.7806 7.7 49.7806 7.37109 49.7806 7.04217C49.7806 6.09759 49.7806 5.15301 49.7806 4.20844C49.7721 2.90121 49.1567 2.30241 47.85 2.30241C38.0878 2.30241 28.3172 2.30241 18.555 2.30241C18.3105 2.30241 18.066 2.31928 17.83 2.28554C17.1893 2.20121 16.7846 1.70362 16.8184 1.07952C16.8521 0.480724 17.2905 0.0674712 17.9227 0.0337363C18.0829 0.0253026 18.2431 0.0337363 18.4032 0.0337363C28.2076 0.0337363 38.012 0.0590375 47.8163 0.0168688C50.0166 0.00843508 51.475 1.39157 51.8544 2.81687C51.9809 3.29759 52.0314 3.80362 52.0399 4.30121C52.0652 6.07229 52.0399 7.84338 52.0652 9.60603C52.0652 9.90964 52.2253 10.2554 52.4192 10.5C52.8155 11.0313 53.3128 11.4867 53.7175 12.0096C54.4341 12.9374 54.2823 13.9747 53.3634 14.7169C53.0009 15.0121 52.4361 15.2819 52.3518 15.653C52.2759 15.9988 52.7227 16.4542 52.9166 16.8675C53.1695 17.4157 53.414 17.9639 53.6248 18.5289C53.7428 18.841 53.8945 18.9253 54.2149 18.8241C54.7291 18.6639 55.2602 18.5289 55.7829 18.394C56.55 18.2 57.1233 18.4867 57.3172 19.2374C57.882 21.4133 58.1434 23.6229 57.9326 25.8663C57.8314 26.9458 57.6375 28.0169 57.4015 29.0711C57.157 30.1843 56.2128 30.7157 55.1085 30.4374C54.6617 30.3277 54.2233 30.1928 53.7512 30.0663C53.2117 31.1711 52.6721 32.259 52.1157 33.406C52.453 33.6675 52.8155 33.9374 53.1695 34.2241C54.1559 35.0169 54.2655 36.088 53.4562 37.0663C53.3044 37.2518 53.1695 37.4711 52.9841 37.6145C52.1495 38.2554 52.0399 39.1072 52.0399 40.1108C52.0736 48.6542 52.0567 57.1976 52.0652 65.741C52.0652 67.5036 51.416 68.8867 49.7806 69.6542C49.2916 69.8819 48.7015 70.0169 48.1535 70.0169C44.8826 70.0506 41.6032 70.0337 38.3323 70.0337C37.5483 70.0337 37.0425 69.5868 37.0341 68.9205C37.0341 68.2458 37.5652 67.7651 38.3745 67.7651C41.4852 67.7651 44.6044 67.7651 47.7152 67.7651C49.2157 67.7651 49.789 67.2 49.789 65.6904C49.789 57.5855 49.789 49.4892 49.789 41.3843C49.789 41.1735 49.7721 40.9542 49.7553 40.7012V40.659ZM55.3698 20.8566C54.6701 21.0337 54.0378 21.2108 53.4056 21.3627C52.689 21.5398 52.2253 21.253 51.9303 20.5783C51.3233 19.1614 50.6995 17.753 50.0419 16.3614C49.5951 15.4169 49.7721 14.5313 50.5983 13.9072C50.9439 13.6458 51.298 13.3928 51.6942 13.0976C50.1178 11.1831 48.28 9.70723 46.0966 8.56868C45.9364 8.92289 45.8015 9.20964 45.6751 9.49639C45.0681 10.8289 44.2925 11.1241 42.9099 10.694C41.7803 10.3398 40.6253 10.0699 39.4704 9.8506C38.2143 9.61446 37.6242 8.93133 37.6916 7.6494C37.7085 7.32048 37.6916 6.98313 37.6916 6.60362C35.23 6.62892 32.937 7.14337 30.703 8.15542C30.8631 8.47591 30.9896 8.72048 31.116 8.9735C31.7736 10.2217 31.5291 11.0313 30.3742 11.8494C29.3625 12.5663 28.3931 13.3422 27.4405 14.1434C26.5721 14.8771 25.6532 14.9193 24.7849 14.1855C24.5152 13.9578 24.2538 13.7301 23.9419 13.4687C22.4245 15.4337 21.4044 17.5422 20.7721 19.9205C21.1346 19.9964 21.4634 20.0639 21.7838 20.1398C23.023 20.4181 23.4867 21.1434 23.4108 22.4084C23.3349 23.606 23.3265 24.8121 23.3855 26.0181C23.453 27.4265 22.905 28.1771 21.5056 28.3795C21.2527 28.4133 21.0082 28.4807 20.7047 28.5482C21.3032 30.9518 22.2896 33.094 23.7817 35.0422C24.1021 34.7723 24.3803 34.5361 24.6585 34.3169C25.5774 33.5747 26.4204 33.6422 27.3056 34.4012C28.275 35.2361 29.2782 36.0458 30.3067 36.8048C31.3015 37.5386 31.5375 38.3566 30.9643 39.4699C30.8041 39.7819 30.6355 40.094 30.4585 40.4566C32.7094 41.5024 35.0024 42.0337 37.4556 42.1265C37.4556 41.6711 37.4556 41.3 37.4556 40.9205C37.4387 39.6976 37.9867 39.0904 39.1838 38.8542C40.4399 38.6096 41.696 38.3313 42.9268 38.0024C44.0817 37.6988 44.8742 38.0446 45.3547 39.1494C45.5149 39.5121 45.6751 39.8663 45.8605 40.2627C48.0777 39.1494 49.9323 37.6988 51.5256 35.8096C51.1041 35.4892 50.7248 35.2277 50.3707 34.9325C49.6373 34.3422 49.4349 33.4651 49.8312 32.6639C50.4803 31.3482 51.121 30.041 51.7617 28.7253C52.1663 27.8904 52.9419 27.5108 53.8439 27.7217C54.198 27.806 54.5437 27.8904 54.8893 28.0084C55.2349 28.1265 55.3698 27.9916 55.4204 27.6711C55.8082 25.4361 55.8335 23.2012 55.3614 20.8566H55.3698Z" fill="#9A863F"/>
<path d="M0 34.3759C0 24.3229 0 14.2783 0 4.2253C0 2.0747 1.18866 0.514456 3.15291 0.092769C3.46483 0.0252991 3.7936 0.0252991 4.11395 0.0252991C6.87064 0.0252991 9.6189 0.0252991 12.3756 0.0252991C13.2608 0.0252991 13.7834 0.446986 13.775 1.15542C13.775 1.85542 13.2355 2.29397 12.3672 2.29397C9.65262 2.29397 6.93808 2.29397 4.23198 2.29397C2.89157 2.29397 2.29302 2.89277 2.28459 4.2506C2.28459 24.753 2.28459 45.2554 2.28459 65.7578C2.28459 67.1325 2.89157 67.7229 4.28256 67.7229C13.6233 67.7229 22.9724 67.7229 32.3131 67.7229C32.5576 67.7229 32.802 67.706 33.0381 67.7482C33.6451 67.8494 34.0497 68.3554 34.016 68.9373C33.9823 69.5277 33.527 69.9494 32.9032 69.9916C32.802 69.9916 32.7009 69.9916 32.5997 69.9916C23.0988 69.9916 13.5895 69.9916 4.08866 69.9916C2.19186 69.9916 0.708139 68.9458 0.210756 67.2422C0.0674419 66.7699 0.0252907 66.2554 0.0168605 65.7578V34.3759H0Z" fill="#9A863F"/>
<path d="M17.712 52.6349C20.907 52.6349 24.0936 52.6349 27.2887 52.6349C28.2666 52.6349 28.8483 53.4277 28.4689 54.2289C28.2413 54.7181 27.8198 54.9036 27.2887 54.9036C25.8387 54.9036 24.3971 54.9036 22.9471 54.9036C18.007 54.9036 13.0669 54.9036 8.12679 54.9036C7.3765 54.9036 6.91284 54.5916 6.78638 54.0349C6.61778 53.2675 7.14045 52.6349 8.00877 52.6349C10.0152 52.6265 12.0216 52.6349 14.0364 52.6349C15.2588 52.6349 16.4896 52.6349 17.712 52.6349Z" fill="#9A863F"/>
<path d="M11.6253 59.6518C10.462 59.6518 9.29858 59.6518 8.13521 59.6518C7.26689 59.6518 6.78637 59.247 6.77794 58.547C6.76951 57.8217 7.25003 57.3831 8.14364 57.3831C10.5125 57.3747 12.8814 57.3747 15.2503 57.3831C15.9585 57.3831 16.439 57.7036 16.5486 58.2349C16.6582 58.7578 16.5233 59.2217 16.0428 59.4747C15.7899 59.6096 15.4695 59.6434 15.1745 59.6518C13.9942 59.6687 12.8056 59.6518 11.6253 59.6518Z" fill="#9A863F"/>
<path d="M37.9783 13.7386C43.9047 13.7892 48.5329 18.5036 48.4739 24.4241C48.4234 30.1337 43.6013 34.8566 37.8771 34.8145C32.0687 34.7723 27.3478 29.9819 27.3984 24.188C27.4489 18.4024 32.2204 13.688 37.9783 13.7301V13.7386ZM37.9952 15.9904C33.4428 15.9735 29.6829 19.7012 29.6745 24.2386C29.6577 28.759 33.3838 32.5458 37.8687 32.5542C42.4379 32.5627 46.1893 28.8602 46.2146 24.3229C46.2399 19.7434 42.5559 15.9988 38.0036 15.9904H37.9952Z" fill="#9A863F"/>
</g>
<defs>
<clipPath id="clip0_196_605">
<rect width="58" height="70" fill="white"/>
</clipPath>
</defs>
</svg>
