<svg width="62" height="70" viewBox="0 0 62 70" fill="none" xmlns="http://www.w3.org/2000/svg">
<g clip-path="url(#clip0_196_604)">
<path d="M5.67568 2.14303C3.76705 2.14303 2.26023 3.6331 2.15978 5.54173C2.15978 5.68404 2.15978 5.83473 2.15978 5.97704C2.15978 25.3229 2.15978 44.6687 2.15978 64.0062C2.15978 65.513 2.70391 66.7352 4.06841 67.4133C4.64603 67.6979 5.35758 67.8235 6.00216 67.8235C17.5293 67.8486 29.0565 67.8402 40.5836 67.8402C42.3499 67.8402 44.1079 67.8402 45.8742 67.8402C48.1009 67.8402 49.591 66.3418 49.591 64.1067C49.591 56.5475 49.591 48.9799 49.591 41.4207C49.591 41.2198 49.5826 41.0189 49.5994 40.818C49.6496 40.3073 50.0263 39.9306 50.5118 39.8888C51.0225 39.8469 51.4494 40.1148 51.5834 40.6171C51.642 40.8264 51.642 41.044 51.642 41.2617C51.642 48.8627 51.642 56.4638 51.642 64.0564C51.642 67.0617 49.817 69.2717 46.8871 69.8242C46.6025 69.8744 46.3095 69.8828 46.0165 69.8828C32.5807 69.8828 19.1449 69.8828 5.70917 69.8828C2.67042 69.8828 0.209289 67.5137 0.125577 64.475C0.0753494 62.7505 0.108834 61.0177 0.108834 59.2932C0.108834 51.1815 0.108834 43.0782 0.108834 34.9665C0.108834 25.2727 0.108834 15.5872 0.108834 5.89332C0.108834 3.44056 1.18035 1.61564 3.40709 0.585982C4.11027 0.259505 4.94739 0.0920809 5.71754 0.0837097" fill="#9A863F"/>
<path d="M5.67568 2.14303C3.76705 2.14303 2.26023 3.6331 2.15978 5.54173C2.15978 5.68404 2.15978 5.83473 2.15978 5.97704C2.15978 25.3229 2.15978 44.6687 2.15978 64.0062C2.15978 65.513 2.70391 66.7352 4.06841 67.4133C4.64603 67.6979 5.35758 67.8235 6.00216 67.8235C17.5293 67.8486 29.0565 67.8402 40.5836 67.8402C42.3499 67.8402 44.1079 67.8402 45.8742 67.8402C48.1009 67.8402 49.591 66.3418 49.591 64.1067C49.591 56.5475 49.591 48.9799 49.591 41.4207C49.591 41.2198 49.5826 41.0189 49.5994 40.818C49.6496 40.3073 50.0263 39.9306 50.5118 39.8888C51.0225 39.8469 51.4494 40.1148 51.5834 40.6171C51.642 40.8264 51.642 41.044 51.642 41.2617C51.642 48.8627 51.642 56.4638 51.642 64.0564C51.642 67.0617 49.817 69.2717 46.8871 69.8242C46.6025 69.8744 46.3095 69.8828 46.0165 69.8828C32.5807 69.8828 19.1449 69.8828 5.70917 69.8828C2.67042 69.8828 0.209289 67.5137 0.125577 64.475C0.0753494 62.7505 0.108834 61.0177 0.108834 59.2932C0.108834 51.1815 0.108834 43.0782 0.108834 34.9665C0.108834 25.2727 0.108834 15.5872 0.108834 5.89332C0.108834 3.44056 1.18035 1.61564 3.40709 0.585982C4.11027 0.259505 4.94739 0.0920809 5.71754 0.0837097" stroke="#9A863F" stroke-width="0.25" stroke-miterlimit="10"/>
<path d="M0.117135 10.7068C0.117135 8.9823 0.0836502 7.24946 0.133877 5.52499C0.217589 2.49462 2.67872 0.125566 5.71747 0.117195C19.1532 0.117195 32.589 0.117195 46.0248 0.117195C46.3178 0.117195 46.6108 0.117195 46.8954 0.175794C49.8253 0.728293 51.6503 2.93829 51.6503 5.94355C51.6503 13.5446 51.6503 10.2631 51.6503 17.8558C51.6503 18.0734 51.6503 18.2994 51.5917 18.5004C51.4577 18.9943 51.0308 19.2705 50.5201 19.2287C50.0346 19.1868 49.6579 18.8101 49.6077 18.2994C49.5909 18.0985 49.5993 17.8976 49.5993 17.6967C49.5993 10.1375 49.5993 13.4525 49.5993 5.89333C49.5993 3.65821 48.1092 2.16814 45.8825 2.15977C44.1162 2.15977 42.3582 2.15977 40.5919 2.15977C29.0648 2.15977 17.5376 2.15977 6.01046 2.17651C5.35751 2.17651 4.64596 2.30208 4.07671 2.5867C2.70384 3.26477 2.15971 4.48696 2.16808 5.99378" fill="#9A863F"/>
<path d="M0.117135 10.7068C0.117135 8.9823 0.0836502 7.24946 0.133877 5.52499C0.217589 2.49462 2.67872 0.125566 5.71747 0.117195C19.1532 0.117195 32.589 0.117195 46.0248 0.117195C46.3178 0.117195 46.6108 0.117195 46.8954 0.175794C49.8253 0.728293 51.6503 2.93829 51.6503 5.94355C51.6503 13.5446 51.6503 10.2631 51.6503 17.8558C51.6503 18.0734 51.6503 18.2994 51.5917 18.5004C51.4577 18.9943 51.0308 19.2705 50.5201 19.2287C50.0346 19.1868 49.6579 18.8101 49.6077 18.2994C49.5909 18.0985 49.5993 17.8976 49.5993 17.6967C49.5993 10.1375 49.5993 13.4525 49.5993 5.89333C49.5993 3.65821 48.1092 2.16814 45.8825 2.15977C44.1162 2.15977 42.3582 2.15977 40.5919 2.15977C29.0648 2.15977 17.5376 2.15977 6.01046 2.17651C5.35751 2.17651 4.64596 2.30208 4.07671 2.5867C2.70384 3.26477 2.15971 4.48696 2.16808 5.99378" stroke="#9A863F" stroke-width="0.25" stroke-miterlimit="10"/>
<path d="M59.1843 25.3396C59.4605 25.5405 59.8289 25.8 60.1888 26.0679C61.4613 26.9971 61.6873 28.3533 60.7664 29.6424C59.3768 31.6013 57.9872 33.5518 56.5892 35.5023C56.1539 36.1134 55.5596 36.2808 55.0573 35.9292C54.5466 35.5776 54.4713 34.9665 54.915 34.347C56.2627 32.43 57.6273 30.5214 58.9918 28.6128C59.3852 28.0519 59.3852 28.01 58.8411 27.625C58.5397 27.4073 58.2216 27.1897 57.87 26.9469C57.577 27.3487 57.3091 27.7087 57.0496 28.077C50.9303 36.6575 44.8193 45.2464 38.7 53.8268C37.1345 56.0201 35.1506 57.8115 33.041 59.4607C32.6978 59.7285 32.3713 60.0132 32.0281 60.281C31.2245 60.9005 30.1697 60.9424 29.3912 60.3899C28.5541 59.7955 28.2694 58.8412 28.5875 57.8283C29.8349 53.8352 31.8105 50.244 34.2716 46.8536C40.5919 38.1308 46.7949 29.316 53.0482 20.5346C53.5086 19.89 54.0444 19.3961 54.8564 19.2454C55.0238 19.2119 55.1912 19.0361 55.3001 18.8854C55.727 18.3162 56.1204 17.7302 56.539 17.161C57.2505 16.1732 58.4058 15.9639 59.4103 16.642C59.8958 16.9684 60.3646 17.3033 60.8334 17.6465C61.838 18.3999 62.0138 19.53 61.3022 20.5764C61.0929 20.8778 60.8753 21.1708 60.666 21.4638C60.2474 22.0581 59.8121 22.5855 59.8624 23.4477C59.8958 24.0337 59.4522 24.6448 59.1927 25.3313L59.1843 25.3396ZM41.7471 45.9914C41.9061 45.7821 42.0233 45.6398 42.1322 45.4975C44.9281 41.5798 47.7241 37.6537 50.5117 33.7359C52.864 30.4377 55.208 27.1311 57.5603 23.8328C57.9788 23.2468 57.9537 23.1547 57.3845 22.7446C56.8487 22.3595 56.3213 21.9828 55.7856 21.6061C55.1912 21.1791 55.0908 21.1959 54.6638 21.7986C50.1936 28.077 45.7234 34.347 41.2532 40.6254C40.4747 41.7137 39.7045 42.8103 38.8841 43.9572C39.8552 44.6436 40.776 45.305 41.7471 45.9998V45.9914ZM37.7289 45.6482C34.6567 49.6663 31.7435 53.6845 30.5297 58.724C34.9078 55.9113 37.7624 51.8429 40.5333 47.6405C39.5789 46.9624 38.6665 46.3179 37.7205 45.6398L37.7289 45.6482ZM59.6531 19.3542C59.1508 19.0026 58.6988 18.6845 58.2132 18.3413C57.803 18.9105 57.4347 19.4296 57.0413 19.9821C57.5603 20.3504 58.0123 20.6685 58.4895 21.0033C58.8997 20.4174 59.268 19.9067 59.6531 19.3542Z" fill="#9A863F" stroke="#9A863F" stroke-width="0.25" stroke-miterlimit="10"/>
<path d="M15.6373 60.189C16.4912 59.7453 17.2362 59.3351 17.998 58.9668C19.7057 58.1464 21.3297 58.3054 22.8868 59.3853C23.9081 60.0885 24.9545 60.7582 26.2018 60.9675C26.771 61.0596 27.357 61.1182 27.9346 61.16C28.6545 61.2102 29.0815 61.6037 29.0647 62.2148C29.0396 62.8091 28.5624 63.2193 27.8676 63.211C25.9088 63.1775 24.109 62.6585 22.4766 61.5618C22.2338 61.4028 21.9827 61.2605 21.7483 61.0847C20.8023 60.3647 19.7811 60.3229 18.7765 60.8754C17.5878 61.5367 16.4577 62.2985 15.3025 63.01C14.976 63.211 14.6579 63.4286 14.3063 63.5542C13.3687 63.8807 12.5316 63.2026 12.6906 62.2232C12.7744 61.7125 12.9669 61.2102 13.1594 60.7247C13.6282 59.5276 14.1389 58.3389 14.616 57.1418C14.7165 56.8991 14.7332 56.6228 14.8337 56.1708C14.3481 56.3466 13.9631 56.4219 13.6366 56.6061C12.2386 57.4013 11.1587 58.5566 10.1207 59.7536C9.30031 60.6996 8.55527 61.7125 7.76 62.6836C7.58421 62.9012 7.35819 63.1272 7.10705 63.2193C6.68012 63.3867 6.26156 63.2612 5.99368 62.8761C5.68395 62.4408 5.71743 61.972 6.05228 61.5618C7.34981 59.9964 8.61387 58.3975 9.99511 56.9074C10.7234 56.1206 11.6191 55.4425 12.54 54.8816C13.1594 54.5049 13.9547 54.2705 14.683 54.2203C16.1145 54.1282 17.0688 55.2583 16.7842 56.6647C16.5833 57.6525 16.1982 58.5984 15.8801 59.5695C15.8215 59.7537 15.7378 59.9294 15.6289 60.1806L15.6373 60.189Z" fill="#9A863F" stroke="#9A863F" stroke-width="0.25" stroke-miterlimit="10"/>
<path d="M12.5234 8.60559C10.9077 8.60559 9.29207 8.60559 7.66806 8.60559C6.8728 8.60559 6.42912 8.17866 6.47098 7.51734C6.50446 7.04855 6.74723 6.73044 7.20764 6.62162C7.43367 6.57139 7.67643 6.55465 7.91083 6.55465C10.9831 6.55465 14.0553 6.55465 17.1275 6.55465C18.1237 6.55465 18.6176 6.90624 18.6092 7.60105C18.6092 8.28749 18.1153 8.62234 17.1024 8.62234C15.5788 8.62234 14.0469 8.62234 12.5234 8.62234V8.60559Z" fill="#9A863F" stroke="#9A863F" stroke-width="0.25" stroke-miterlimit="10"/>
<path d="M12.5232 12.7159C14.1556 12.7159 15.7963 12.7159 17.4287 12.7159C18.0733 12.7159 18.45 12.9921 18.5756 13.5027C18.7179 14.0887 18.3161 14.6663 17.6631 14.7333C17.1943 14.7835 16.7172 14.7584 16.2484 14.7584C13.5026 14.7584 10.7569 14.7584 8.01949 14.7584C7.85207 14.7584 7.69301 14.7584 7.52559 14.7584C6.85589 14.7082 6.4457 14.2896 6.47082 13.6869C6.48756 13.1093 6.90612 12.7242 7.55907 12.7159C8.97381 12.6991 10.3969 12.7159 11.8116 12.7159C12.046 12.7159 12.2804 12.7159 12.5232 12.7159Z" fill="#9A863F" stroke="#9A863F" stroke-width="0.25" stroke-miterlimit="10"/>
</g>
<defs>
<clipPath id="clip0_196_604">
<rect width="61.8297" height="70" fill="white"/>
</clipPath>
</defs>
</svg>
