<svg width="80" height="72" viewBox="0 0 80 72" fill="none" xmlns="http://www.w3.org/2000/svg">
<path d="M75.4421 41.9184C66.4153 47.5731 56.405 49.3248 46.067 50.0051C46.0922 52.0119 45.4703 53.7126 43.9322 54.9881C42.8563 55.8724 41.6124 56.2891 40.2256 56.2466C37.0822 56.1531 35.1911 54.0442 34.67 50.0136C34.4515 49.9881 34.2077 49.9541 33.9724 49.9456C28.4588 49.5969 23.004 48.8231 17.6753 47.3095C17.5408 47.267 17.3979 47.233 17.2635 47.182C16.6163 46.9609 16.2717 46.3912 16.4146 45.7959C16.5659 45.1667 17.1626 44.784 17.8434 44.9456C18.9781 45.2092 20.1043 45.5323 21.239 45.8044C25.08 46.7143 28.9799 47.2245 32.905 47.5221C33.4765 47.5646 34.048 47.6071 34.7204 47.6582C34.7204 46.7653 34.712 45.9235 34.7204 45.0816C34.7456 43.6616 35.5693 42.5731 36.8721 42.2585C37.1074 42.199 37.3596 42.1905 37.6033 42.1905C39.4524 42.1905 41.293 42.182 43.1421 42.1905C44.8651 42.1905 46.0166 43.3725 46.0418 45.1327C46.0502 45.9405 46.0418 46.7398 46.0418 47.6412C46.689 47.5986 47.2689 47.5646 47.8489 47.5221C53.3877 47.1139 58.8424 46.2636 64.1459 44.5544C68.3484 43.2024 72.3491 41.4167 75.8708 38.6701C76.9382 37.8367 77.4593 36.7653 77.4509 35.4048C77.4341 30.0901 77.4509 24.7755 77.4509 19.4694C77.4509 17.1224 75.9212 15.5748 73.593 15.5748C51.463 15.5748 29.3245 15.5748 7.1944 15.5748C4.85784 15.5748 3.32815 17.1139 3.31975 19.4609C3.31975 24.7755 3.31975 30.0901 3.31975 35.3963C3.31975 36.7653 3.82404 37.8367 4.89146 38.6701C7.07674 40.3878 9.48053 41.7143 12.002 42.8282C12.3382 42.9728 12.6828 43.1173 13.019 43.2789C13.725 43.6105 13.994 44.2143 13.7334 44.8435C13.4813 45.4558 12.8257 45.7194 12.1281 45.4218C10.9598 44.9201 9.79992 44.3929 8.66526 43.8231C7.74913 43.3639 6.87502 42.8112 5.9925 42.2925C5.79919 42.182 5.61428 42.0714 5.34533 41.9184C5.32852 42.216 5.31171 42.4371 5.31171 42.6497C5.31171 49.9796 5.35373 57.301 5.28649 64.6309C5.26968 66.7738 6.82459 68.6701 9.30403 68.6616C24.1723 68.619 39.0489 68.6446 53.9172 68.6446C54.2029 68.6446 54.4971 68.636 54.7745 68.6786C55.346 68.7636 55.7494 69.2228 55.7747 69.7755C55.7999 70.3537 55.3964 70.8554 54.8081 70.966C54.6316 71 54.4383 70.9915 54.2534 70.9915C39.217 70.9915 24.1807 70.9915 9.14434 70.9915C5.9841 70.9915 3.5719 68.9507 3.05079 65.8554C2.97515 65.4133 2.98355 64.9456 2.98355 64.4949C2.98355 56.6122 2.98355 48.7211 2.98355 40.8384C2.98355 40.3452 2.84908 39.9966 2.51288 39.631C1.5211 38.534 1 37.2245 1 35.7279C1 30.2262 1 24.7245 1 19.2313C1 16.0595 3.48785 13.432 6.62287 13.2619C7.0095 13.2449 7.40453 13.2449 7.79115 13.2449C13.6578 13.2449 19.5244 13.2364 25.391 13.2619C26.0045 13.2619 26.2147 13.1173 26.1895 12.4711C26.139 10.9405 26.1895 9.40136 26.1726 7.86224C26.1474 6.28061 26.8198 5.12415 28.131 4.29932C31.1315 2.40306 34.4347 1.44218 37.9311 1.12755C38.9901 1.03401 40.0575 1.03401 41.1249 1C41.3939 1 41.6629 1 41.9234 1.04252C42.6546 1.13605 43.1001 1.61224 43.0833 2.25C43.0581 2.93027 42.5622 3.35544 41.7889 3.38095C40.4778 3.41497 39.1582 3.38095 37.8554 3.5C34.9389 3.76361 32.1989 4.61395 29.6523 6.09354C28.8118 6.58673 28.4252 7.21599 28.4672 8.21088C28.526 9.63946 28.484 11.0765 28.484 12.5051C28.484 12.7262 28.5008 12.9558 28.5176 13.2109H31.1736C31.1736 12.6837 31.1736 12.148 31.1736 11.6207C31.1736 10.8554 31.1736 10.0816 31.1736 9.31633C31.1736 8.64456 31.4509 8.19388 32.0645 7.89626C35.3424 6.33163 38.7968 5.86395 42.3773 6.17857C44.5373 6.36565 46.6049 6.91837 48.5885 7.83673C49.2945 8.15986 49.6139 8.65306 49.5971 9.43537C49.5719 10.6769 49.5971 11.9184 49.5971 13.2024H52.2866C52.2866 12.8963 52.2866 12.6071 52.2866 12.3265C52.2866 10.8724 52.2698 9.41837 52.2866 7.96429C52.3034 7.17347 51.9925 6.63775 51.3201 6.22959C49.8912 5.35374 48.3784 4.69048 46.7646 4.2398C46.5461 4.18027 46.3276 4.12925 46.1174 4.04422C45.4451 3.79762 45.1341 3.21088 45.319 2.56463C45.4955 1.96088 46.1259 1.58673 46.7982 1.80782C48.1178 2.25 49.429 2.71769 50.7233 3.2449C51.3873 3.51701 52.0009 3.90816 52.6144 4.28231C53.9256 5.08163 54.6148 6.2466 54.5896 7.83673C54.5644 9.29082 54.5812 10.7449 54.5896 12.199C54.5896 13.3639 54.4635 13.2449 55.5982 13.2449C61.6077 13.2449 67.6171 13.2449 73.6266 13.2449C76.7701 13.2449 79.1066 15.2092 79.695 18.3299C79.7622 18.6701 79.7622 19.0272 79.7622 19.3844C79.7622 24.7585 79.7622 30.1327 79.7622 35.5068C79.7622 37.165 79.1991 38.5765 78.1149 39.8095C77.9131 40.0391 77.7955 40.4303 77.7955 40.7449C77.7787 48.7806 77.7955 56.8078 77.7787 64.8435C77.7787 67.7177 76.0136 70.0646 73.3409 70.7789C72.887 70.898 72.4163 70.9745 71.9457 70.983C67.76 71 63.5744 70.9915 59.3888 71C58.8256 71 58.3129 70.8214 58.1869 70.2432C58.1112 69.869 58.1869 69.3418 58.4138 69.0612C58.6323 68.7976 59.1282 68.6701 59.5064 68.6616C61.7589 68.6275 64.0199 68.6446 66.2724 68.6446C68.0542 68.6446 69.8444 68.6446 71.6263 68.6446C73.9124 68.636 75.4505 67.0884 75.4505 64.7755C75.4505 57.3861 75.4505 49.9966 75.4505 42.6071C75.4505 42.4116 75.4337 42.2075 75.4169 41.9354L75.4421 41.9184ZM40.3601 13.2194C42.4697 13.2194 44.5793 13.2109 46.689 13.2279C47.1512 13.2279 47.3025 13.0918 47.2857 12.6241C47.2521 11.8418 47.2605 11.051 47.2857 10.2602C47.2941 9.88605 47.1681 9.66497 46.8151 9.57993C45.3274 9.21429 43.8565 8.72109 42.3521 8.52551C39.5112 8.15986 36.7124 8.5 34.0144 9.54592C33.6362 9.69048 33.4765 9.89456 33.4933 10.3197C33.5269 11.085 33.5269 11.8588 33.4933 12.6241C33.4681 13.0918 33.6362 13.2279 34.09 13.2279C36.1829 13.2109 38.2673 13.2194 40.3601 13.2194ZM37.057 47.9643C37.057 48.8316 37.0318 49.7075 37.057 50.5748C37.1158 52.4626 38.5362 53.8827 40.3517 53.8997C42.2008 53.9167 43.6716 52.5051 43.7136 50.5918C43.7557 48.8146 43.7136 47.0289 43.7305 45.2432C43.7305 44.7585 43.554 44.5204 43.0413 44.5289C41.2762 44.5459 39.5196 44.5459 37.7546 44.5289C37.2503 44.5289 37.0402 44.733 37.0486 45.2262C37.057 46.1361 37.0486 47.0459 37.0486 47.9643H37.057Z" fill="#9A863F" stroke="#9A863F" stroke-width="0.25" stroke-miterlimit="10"/>
</svg>
