<svg width="82" height="72" viewBox="0 0 82 72" fill="none" xmlns="http://www.w3.org/2000/svg">
<path d="M66.8433 22.7622C68.7481 22.8781 70.0815 24.2943 70.1477 26.1908C70.1643 26.696 70.1726 27.2095 70.1477 27.7146C70.1063 28.402 69.6674 28.8327 69.0297 28.8575C68.3589 28.8824 67.8703 28.4766 67.7957 27.7643C67.746 27.284 67.7875 26.7954 67.7626 26.3068C67.7295 25.5448 67.3402 25.1308 66.57 25.1308C63.1663 25.1225 59.7708 25.1142 56.367 25.1308C55.572 25.1308 55.191 25.5531 55.191 26.3813C55.191 29.2136 55.1662 32.046 55.191 34.87C55.1993 35.723 54.868 36.2199 54.1061 36.6009C48.9632 39.1185 45.7333 43.1848 44.4993 48.775C42.7271 56.8165 47.2323 65.2141 54.9011 68.2949C56.8473 69.0817 58.926 69.5537 60.2677 69.4958C60.2677 68.5848 60.2842 67.6655 60.2428 66.7462C60.2428 66.6386 59.9116 66.4812 59.7128 66.4564C57.7004 66.1831 55.8121 65.562 54.0813 64.4853C50.3545 62.1747 48.1102 58.8455 47.3482 54.5225C47.2157 53.7688 47.6215 53.1477 48.2841 53.04C48.9797 52.9241 49.518 53.3216 49.6671 54.1084C50.2386 57.2306 51.721 59.831 54.28 61.7193C57.8826 64.3942 61.866 64.9822 66.0069 63.2514C70.214 61.4957 72.7068 58.2409 73.2782 53.7026C74.2306 46.1331 67.9448 39.7148 60.3588 40.3773C55.6051 40.7997 51.4394 44.1952 50.0895 48.7584C50.0315 48.9572 49.9735 49.1642 49.8907 49.363C49.6257 50.0172 49.0294 50.3485 48.4414 50.1663C47.8037 49.9675 47.4311 49.3547 47.6298 48.659C47.8451 47.8888 48.0936 47.1186 48.4249 46.3899C51.6382 39.2759 59.8536 36.0709 67.0587 39.0937C67.2491 39.1765 67.4396 39.2428 67.7212 39.3587C67.7378 39.0688 67.7626 38.8535 67.7626 38.6299C67.7626 36.8162 67.746 34.9943 67.7792 33.1806C67.7792 32.1868 68.1684 31.7561 68.9303 31.7561C69.6922 31.7561 70.0815 32.0708 70.0815 33.1806C70.0815 34.4808 70.5618 34.7541 71.5722 35.3752C77.1044 38.7541 80.3094 43.7231 81.063 50.1746C82.2142 59.9967 75.6136 69.2225 65.9406 71.4502C54.9508 73.9762 44.0356 66.8208 42.0728 55.7978C40.5738 47.3754 44.5987 38.9943 52.1268 34.928C52.6568 34.6381 52.8142 34.3234 52.8059 33.752C52.781 31.3006 52.7893 28.8492 52.7976 26.3979C52.7976 24.3026 54.1061 22.903 56.2014 22.7456M25.1616 22.7539C27.083 22.8781 28.4411 24.3357 28.4577 26.2571C28.4743 28.8161 28.4743 31.3669 28.4577 33.9259C28.4577 34.3897 28.6151 34.6299 29.0126 34.8535C34.5282 37.8846 38.0562 42.4892 39.1328 48.6673C40.5158 56.6343 37.8409 63.2017 31.4308 68.1293C27.4391 71.1935 22.8013 72.4523 17.8323 71.856C9.79079 70.8871 4.15095 66.5392 1.28549 58.9532C-0.967129 52.9986 -0.196932 47.2097 3.10746 41.7687C3.23997 41.5533 3.37248 41.338 3.52983 41.1393C3.96048 40.5844 4.61473 40.4602 5.15304 40.808C5.70791 41.1641 5.82386 41.8515 5.47602 42.4892C4.86318 43.6155 4.16752 44.717 3.68718 45.9012C0.142617 54.597 4.45738 64.7835 13.1946 68.2618C14.6521 68.8415 16.2339 69.0982 17.7578 69.4875C17.9979 69.5455 18.2547 69.5206 18.5528 69.5372V66.5558C13.4347 65.9098 9.52577 63.4087 7.09095 58.8207C5.30211 55.4417 4.9874 51.8475 6.09715 48.1953C7.35597 44.0213 10.0227 40.9985 13.9979 39.2179C17.9814 37.4373 21.9897 37.5947 26.0312 39.3835C26.0477 39.1185 26.0726 38.9198 26.0726 38.721C26.0726 34.6878 26.0726 30.6546 26.0726 26.6132C26.0726 25.4703 25.733 25.1308 24.6067 25.1308C21.3934 25.1308 18.1884 25.1308 14.9751 25.1308C13.8157 25.1308 13.4844 25.4703 13.4844 26.6546C13.4844 29.3627 13.4596 32.0625 13.501 34.7624C13.5175 35.7148 13.1366 36.2365 12.2919 36.6754C11.0993 37.2966 9.98954 38.075 8.86324 38.8204C8.24211 39.2345 7.62926 39.2759 7.18205 38.8701C6.6189 38.3566 6.65202 37.5036 7.3394 37.0067C8.39946 36.2448 9.50093 35.5326 10.6107 34.8452C10.9668 34.6299 11.1076 34.4145 11.1076 34.0004C11.091 31.4828 11.091 28.9735 11.1076 26.4558C11.1159 24.3026 12.383 22.9195 14.5279 22.7456M19.7371 64.1789C26.321 64.1955 31.6959 58.8621 31.7207 52.2947C31.7455 45.7604 26.3956 40.3856 19.8613 40.3525C13.2442 40.3194 7.84459 45.6776 7.84459 52.2616C7.84459 58.7958 13.1946 64.1541 19.7371 64.1706V64.1789ZM20.9876 69.504C27.6792 69.2473 35.522 64.0298 36.9299 54.8206C38.1638 46.7377 33.377 39.839 28.466 37.4042C28.466 38.3401 28.4908 39.2428 28.4577 40.1372C28.4329 40.6672 28.5985 41.015 29.0126 41.3712C36.4495 47.6984 35.5717 59.2762 27.2817 64.4356C25.5011 65.5454 23.555 66.1997 21.4762 66.4812C21.3023 66.5061 21.0125 66.6965 21.0042 66.8208C20.9628 67.6986 20.9793 68.5848 20.9793 69.5123L20.9876 69.504ZM70.1643 37.3794C70.1643 38.3566 70.1974 39.2428 70.156 40.1206C70.1312 40.6838 70.3216 41.0399 70.7523 41.4043C78.1147 47.6404 77.2451 59.3093 69.0463 64.4025C67.2409 65.5205 65.2864 66.1997 63.1828 66.4812C63.0089 66.5061 62.7108 66.6551 62.7108 66.7545C62.6777 67.6738 62.6859 68.5931 62.6859 69.5123C69.303 69.2722 77.063 64.1292 78.5951 55.0773C79.887 47.4416 75.6882 40.278 70.1726 37.3794H70.1643ZM17.94 22.7456C18.5528 22.7208 19.1657 22.7456 19.7785 22.7456C20.3913 22.7456 21.0042 22.7291 21.617 22.7456M59.5637 22.7456C60.1931 22.7291 60.8308 22.7456 61.4602 22.7456C62.0897 22.7456 62.7273 22.7373 63.3568 22.7456" fill="#9A863F"/>
<path d="M20.9712 30.2985C20.9629 30.9445 20.3832 31.4994 19.7372 31.4745C19.1078 31.4497 18.5861 30.9031 18.5943 30.282C18.5943 29.636 19.1658 29.0894 19.82 29.1142C20.4494 29.1391 20.9795 29.6774 20.9712 30.2985Z" fill="#9A863F"/>
<path d="M62.6611 30.3813C62.6114 31.0025 62.0317 31.5159 61.4188 31.4745C60.7646 31.4331 60.2345 30.8451 60.2842 30.1991C60.3339 29.5532 60.9385 29.048 61.5927 29.1142C62.2221 29.1805 62.7108 29.7602 62.6611 30.3731V30.3813Z" fill="#9A863F"/>
<path d="M19.7786 22.9941C19.7786 11.3997 29.1783 2 40.7726 2C52.367 2 61.7667 11.3997 61.7667 22.9941" stroke="#9A863F" stroke-width="3" stroke-miterlimit="10"/>
</svg>
