<svg width="386" height="98" viewBox="0 0 386 98" fill="none" xmlns="http://www.w3.org/2000/svg">
<g clip-path="url(#clip0_188_44)">
<mask id="mask0_188_44" style="mask-type:luminance" maskUnits="userSpaceOnUse" x="0" y="0" width="386" height="98">
<path d="M386 0H0V98H386V0Z" fill="white"/>
</mask>
<g mask="url(#mask0_188_44)">
<path d="M45.0004 85.1326C43.6728 86.5623 41.5935 88.0741 40.0154 88.4504C38.4372 88.8266 36.9675 88.8334 35.6061 88.4709C34.2447 88.1083 33.1 87.4516 32.1856 86.4871C31.2645 85.5294 30.7836 84.4075 30.743 83.1214C30.7768 81.0966 31.2035 78.9897 32.0299 76.7938C32.8494 74.5979 33.7909 72.3747 34.8475 70.1173C35.9041 67.8598 36.9336 65.5955 37.9428 63.3176C38.952 61.0396 39.6496 58.8027 40.0357 56.6C40.4217 54.3973 40.3743 52.2562 39.8934 50.1766C39.4126 48.097 38.2002 46.1406 36.2631 44.3209C35.0168 43.1512 33.5132 42.0977 31.7589 41.1537C30.0047 40.2097 28.0134 39.724 25.7715 39.6829C23.5364 39.6419 21.0709 40.2234 18.382 41.4205C15.6863 42.6176 12.7468 44.7793 9.55664 47.8918C6.63743 50.7444 4.44294 53.4601 2.97995 56.0459C1.51695 58.6317 0.595809 61.0054 0.23006 63.1534C-0.142461 65.3082 -0.0747301 67.1758 0.433254 68.7696C0.941238 70.3635 1.68628 71.6085 2.67516 72.5047C3.65726 73.4008 4.76805 73.907 6.00753 74.0301C7.24024 74.1533 8.39844 73.7839 9.48214 72.9288C10.9045 71.8753 11.7037 70.7603 11.8934 69.5837C12.083 68.4071 11.9679 67.21 11.5547 65.9855C11.1416 64.7678 10.5862 63.4955 9.8953 62.1889C9.19767 60.8755 8.66937 59.521 8.31039 58.1118C7.95142 56.7026 7.91078 55.2866 8.1817 53.8569C8.4594 52.4272 9.37377 50.9496 10.9384 49.431C12.2659 48.1381 13.6815 47.3514 15.1851 47.0777C16.6887 46.8041 18.1246 46.8588 19.486 47.2556C20.8474 47.6524 22.0463 48.3228 23.0826 49.2668C24.1188 50.2108 24.7894 51.2916 25.1077 52.5161C25.5141 54.11 25.4261 55.8544 24.8436 57.7493C24.2611 59.6441 23.4889 61.6348 22.5339 63.728C21.5789 65.8213 20.5901 67.9624 19.5673 70.1515C18.5446 72.3405 17.8063 74.5364 17.3525 76.7391C16.8987 78.9418 16.8648 81.124 17.2645 83.2925C17.6573 85.4541 18.7952 87.5542 20.6646 89.5722C22.2698 91.3166 24.0918 92.5548 26.1372 93.2867C28.1759 94.0118 30.3163 94.265 32.5649 94.0324C34.8068 93.7998 37.0894 93.0815 39.4125 91.8775C41.7357 90.6667 44.2824 88.7171 46.4566 86.5965" fill="#9A863F"/>
<path d="M84.3591 52.5503C85.7747 53.8911 87.2715 55.9912 87.6441 57.5851C88.0166 59.179 88.0234 60.6634 87.6712 62.0384C87.3122 63.4134 86.662 64.5695 85.707 65.493C84.7587 66.4233 83.6479 66.909 82.3746 66.95C80.3697 66.9158 78.2836 66.4849 76.1095 65.6503C73.9353 64.8226 71.734 63.8717 69.4989 62.8046C67.2638 61.7374 65.0219 60.6976 62.7664 59.6784C60.511 58.6591 58.2962 57.9545 56.1152 57.5646C53.9343 57.1747 51.8143 57.2225 49.7553 57.7082C47.6962 58.1939 45.7591 59.4184 43.9575 61.3749C42.7993 62.6336 41.7562 64.1522 40.8215 65.9239C39.8868 67.6957 39.4059 69.7068 39.3653 71.9711C39.3247 74.2286 39.9004 76.7186 41.0857 79.4343C42.2777 82.1569 44.4113 85.1258 47.493 88.3478C50.3174 91.2961 53.0064 93.5125 55.5666 94.9901C58.1268 96.4677 60.4771 97.398 62.6039 97.7674C64.7374 98.1437 66.5865 98.0753 68.1646 97.5622C69.7427 97.0492 70.9754 96.2967 71.8627 95.2979C72.75 94.306 73.2512 93.1842 73.3731 91.9323C73.495 90.6873 73.1293 89.5175 72.2826 88.423C71.2396 86.9865 70.1356 86.1793 68.9706 85.9877C67.8056 85.7962 66.6203 85.9125 65.4079 86.3298C64.2023 86.747 62.9425 87.308 61.6488 88.0057C60.3484 88.7103 59.0073 89.2439 57.6121 89.6065C56.2168 89.969 54.8148 90.0101 53.3992 89.7364C51.9836 89.456 50.5206 88.5325 49.017 86.9523C47.7369 85.6115 46.958 84.1818 46.687 82.6631C46.4161 81.1445 46.4703 79.6943 46.8631 78.3193C47.256 76.9443 47.9197 75.7335 48.8544 74.6869C49.7891 73.6403 50.8593 72.963 52.0717 72.6415C53.6498 72.2311 55.3769 72.32 57.2531 72.9083C59.1292 73.4966 61.1002 74.2764 63.1728 75.241C65.2454 76.2055 67.3654 77.2043 69.5328 78.2372C71.7002 79.2702 73.8743 80.0158 76.0553 80.4741C78.2362 80.9324 80.3968 80.9666 82.5371 80.563C84.6775 80.1663 86.7568 79.017 88.7549 77.129C90.4888 75.5078 91.7147 73.6676 92.4327 71.6017C93.1506 69.5427 93.4012 67.381 93.1709 65.1099C92.9407 62.8456 92.2295 60.5403 91.0374 58.1939C89.8453 55.8476 87.9082 53.2755 85.8086 51.0796" fill="#9A863F"/>
<path d="M52.0038 12.8742C53.3314 11.4445 55.4107 9.93272 56.9888 9.55648C58.567 9.18024 60.0367 9.1734 61.3981 9.53596C62.7595 9.89852 63.9042 10.5552 64.8186 11.5198C65.7397 12.4775 66.2206 13.5993 66.2612 14.8854C66.2274 16.9102 65.8007 19.0172 64.9743 21.2131C64.1548 23.4089 63.2133 25.6322 62.1567 27.8896C61.1001 30.147 60.0638 32.4113 59.0614 34.6892C58.0522 36.9672 57.3546 39.2041 56.9685 41.4068C56.5825 43.6095 56.6299 45.7507 57.1108 47.8303C57.5917 49.9098 58.804 51.8663 60.7412 53.6859C61.9942 54.8557 63.491 55.9091 65.2453 56.8531C66.9995 57.7972 68.9976 58.2829 71.2327 58.3239C73.4678 58.3649 75.9333 57.7835 78.629 56.5864C81.3247 55.3824 84.2642 53.2276 87.4543 50.1151C90.3735 47.2625 92.568 44.5467 94.031 41.9609C95.494 39.3751 96.4152 37.0014 96.7809 34.8534C97.1534 32.6986 97.0857 30.8311 96.5777 29.2372C96.0697 27.6433 95.3247 26.3983 94.3358 25.5022C93.3469 24.606 92.2429 24.0998 91.0034 23.9767C89.7707 23.8536 88.6125 24.223 87.5288 25.0781C86.1065 26.1315 85.3072 27.2466 85.1176 28.4232C84.928 29.5998 85.0431 30.7969 85.4563 32.0214C85.8694 33.239 86.4248 34.5114 87.1157 35.818C87.8133 37.1314 88.3416 38.4858 88.7006 39.895C89.0596 41.3042 89.1002 42.7202 88.8293 44.15C88.5583 45.5797 87.6372 47.0573 86.0726 48.5759C84.7451 49.8688 83.3295 50.6555 81.8259 50.9291C80.3222 51.2027 78.8863 51.148 77.5182 50.7512C76.1568 50.3545 74.9579 49.6841 73.9216 48.7401C72.8853 47.7961 72.2148 46.7152 71.8965 45.4907C71.4901 43.8968 71.5781 42.1525 72.1606 40.2576C72.7431 38.3627 73.5152 36.3721 74.4703 34.2788C75.4253 32.1856 76.4141 30.0444 77.4369 27.8554C78.4596 25.6664 79.1979 23.4705 79.6517 21.2678C80.1055 19.0651 80.1394 16.8829 79.7397 14.7212C79.3469 12.5596 78.209 10.4595 76.3396 8.44145C74.7344 6.69023 72.9124 5.45206 70.867 4.72694C68.8283 4.00183 66.6879 3.74872 64.4393 3.98131C62.1974 4.21389 59.9148 4.93216 57.5917 6.13613C55.2685 7.34009 52.7218 9.29654 50.5476 11.4172" fill="#9A863F"/>
<path d="M12.6453 45.4496C11.2297 44.1089 9.73283 42.0088 9.36031 40.4149C8.98779 38.821 8.98102 37.3366 9.33999 35.9616C9.69897 34.5866 10.3492 33.4305 11.3042 32.507C12.2524 31.5767 13.3632 31.091 14.6366 31.0499C16.6414 31.0841 18.7275 31.5151 20.9017 32.3497C23.0759 33.1774 25.2771 34.1283 27.5123 35.1954C29.7474 36.2626 31.9893 37.3092 34.2447 38.3216C36.5002 39.3409 38.715 40.0455 40.8959 40.4354C43.0769 40.8253 45.1969 40.7774 47.2627 40.2917C49.3217 39.8061 51.2588 38.5816 53.0605 36.6251C54.2187 35.3664 55.2617 33.8478 56.1964 32.076C57.1311 30.3043 57.612 28.2863 57.6526 26.0289C57.6933 23.7714 57.1176 21.2814 55.9323 18.5588C54.747 15.8362 52.6067 12.8673 49.5249 9.64536C46.7005 6.69702 44.0116 4.48063 41.4513 3.00303C38.8911 1.52544 36.5408 0.595104 34.4141 0.225706C32.2805 -0.150533 30.4315 -0.0821264 28.8533 0.430927C27.2752 0.94398 26.0425 1.69646 25.1552 2.6952C24.2679 3.69395 23.7667 4.80898 23.6448 6.06083C23.5229 7.30584 23.8886 8.4756 24.7353 9.57011C25.7783 11.0067 26.8824 11.8139 28.0473 12.0054C29.2123 12.1969 30.3976 12.0807 31.61 11.6634C32.8156 11.2461 34.0754 10.6852 35.3691 9.9874C36.6695 9.2828 38.0106 8.74923 39.4059 8.38667C40.8011 8.02411 42.2032 7.98307 43.612 8.2567C45.0275 8.53033 46.4905 9.46066 47.9942 11.0409C49.2743 12.3816 50.0532 13.8114 50.3241 15.33C50.5951 16.8486 50.5409 18.2989 50.148 19.6807C49.7552 21.0557 49.0914 22.2665 48.1567 23.3131C47.222 24.3597 46.1451 25.037 44.9395 25.3585C43.3614 25.7689 41.6342 25.68 39.7581 25.0917C37.8819 24.5034 35.9109 23.7235 33.8384 22.759C31.7658 21.7945 29.6458 20.7957 27.4784 19.7628C25.311 18.7298 23.1368 17.9842 20.9559 17.5259C18.7749 17.0675 16.6143 17.0333 14.474 17.4369C12.3269 17.8337 10.2544 18.9829 8.25629 20.871C6.52915 22.4922 5.30321 24.3324 4.57849 26.3983C3.86054 28.4573 3.60993 30.619 3.84022 32.8901C4.07051 35.1544 4.78168 37.4597 5.97375 39.806C7.16582 42.1524 9.10293 44.7245 11.2026 46.9204" fill="#9A863F"/>
<path d="M156.852 29.6818C160.266 29.6818 163.158 30.0443 165.542 30.7694C167.919 31.4946 169.843 32.4044 171.299 33.492C172.755 34.5797 173.764 35.7495 174.327 36.9945C174.889 38.2395 175.072 39.4093 174.868 40.4969C174.665 41.5846 174.117 42.4944 173.216 43.2195C172.315 43.9446 171.13 44.3072 169.646 44.3072C168.163 44.3072 166.964 44.013 166.178 43.4247C165.393 42.8364 164.783 42.0908 164.363 41.181C163.937 40.278 163.598 39.2793 163.354 38.1848C163.11 37.0971 162.751 36.0915 162.277 35.1612C161.803 34.2308 161.132 33.4373 160.259 32.7806C159.385 32.1239 158.091 31.7477 156.385 31.6587C154.542 31.5698 152.964 31.9187 151.637 32.7122C150.309 33.5057 149.3 34.4771 148.609 35.64C147.911 36.7961 147.566 38.0069 147.566 39.2793C147.566 40.5516 147.972 41.6393 148.778 42.5423C150.126 43.9036 151.799 45.0597 153.797 46.0105C155.795 46.9614 157.895 47.8575 160.096 48.6989C162.297 49.5403 164.485 50.4023 166.659 51.2847C168.834 52.1672 170.777 53.2343 172.484 54.4793C174.191 55.7243 175.559 57.2225 176.596 58.9668C177.625 60.7112 178.079 62.8592 177.943 65.3971C177.855 67.032 177.517 68.7559 176.934 70.5687C176.352 72.3815 175.309 74.0506 173.805 75.5692C172.301 77.0879 170.236 78.3329 167.608 79.3111C164.98 80.2825 161.559 80.775 157.34 80.775C153.479 80.775 150.201 80.3783 147.505 79.5847C144.809 78.7912 142.635 77.7788 140.976 76.5611C139.316 75.3367 138.138 74.0096 137.44 72.5798C136.742 71.1501 136.438 69.8025 136.533 68.5301C136.621 67.2578 137.047 66.1701 137.813 65.2671C138.578 64.3573 139.608 63.8374 140.908 63.7006C142.567 63.4749 143.847 63.7006 144.748 64.3778C145.649 65.0551 146.354 65.9512 146.868 67.0662C147.383 68.1813 147.837 69.4126 148.216 70.7739C148.595 72.1352 149.124 73.4144 149.801 74.6184C150.472 75.8223 151.372 76.8211 152.497 77.6146C153.621 78.4081 155.213 78.8049 157.279 78.8049C159.033 78.8049 160.509 78.3945 161.722 77.5804C162.934 76.7664 163.876 75.7676 164.553 74.5842C165.223 73.4076 165.61 72.1489 165.698 70.8081C165.786 69.4742 165.542 68.2839 164.959 67.2373C164.194 65.876 162.995 64.7404 161.356 63.8374C159.717 62.9276 157.888 62.0794 155.87 61.2858C153.851 60.4923 151.772 59.6851 149.638 58.8711C147.505 58.057 145.568 57.0446 143.814 55.8475C142.066 54.6504 140.617 53.1728 139.472 51.4284C138.327 49.684 137.731 47.495 137.684 44.8613C137.637 42.597 138.077 40.5311 138.998 38.6705C139.919 36.8098 141.22 35.2159 142.906 33.8751C144.593 32.5343 146.624 31.5082 149.002 30.7831C151.379 30.058 154.007 29.6954 156.879 29.6954" fill="#9A863F"/>
<path d="M197.524 77.8404C198.33 78.1141 198.737 78.4971 198.737 78.9965C198.737 79.6806 198.29 79.9747 197.389 79.879C196.718 79.79 195.73 79.7216 194.422 79.6737C193.122 79.6258 191.462 79.6053 189.437 79.6053C187.412 79.6053 185.753 79.6258 184.452 79.6737C183.152 79.7216 182.136 79.79 181.418 79.879C180.517 79.9679 180.07 79.6737 180.07 78.9965C180.07 78.4971 180.497 78.1141 181.35 77.8404C182.068 77.6147 182.515 77.1495 182.698 76.4449C182.874 75.7403 182.969 74.7553 182.969 73.4829V40.839C182.969 39.5667 182.881 38.5747 182.698 37.8428C182.515 37.1177 182.068 36.6388 181.35 36.4131C180.497 36.1873 180.07 35.8043 180.07 35.257C180.07 34.6208 180.476 34.2172 181.282 34.0325C181.865 33.9436 182.637 33.7931 183.606 33.5879C184.567 33.3826 185.638 33.109 186.803 32.7738C187.968 32.4318 189.207 32.0282 190.507 31.5493C191.808 31.0705 193.088 30.5164 194.348 29.8802C194.795 29.6545 195.154 29.6203 195.425 29.7776C195.696 29.9349 195.831 30.2633 195.831 30.7627V73.4761C195.831 74.7484 195.919 75.7335 196.102 76.4381C196.278 77.1427 196.752 77.6078 197.518 77.8336" fill="#9A863F"/>
<path d="M210.928 39.3409C209.804 39.3409 208.761 39.1699 207.799 38.8279C206.837 38.4858 205.984 38.0207 205.239 37.4324C204.501 36.8441 203.911 36.1395 203.492 35.3254C203.065 34.5114 202.848 33.6495 202.848 32.7396C202.848 31.8298 203.058 30.9679 203.492 30.1539C203.918 29.3398 204.501 28.6215 205.239 28.0127C205.977 27.4039 206.831 26.925 207.799 26.583C208.761 26.241 209.811 26.0699 210.928 26.0699C212.046 26.0699 213.103 26.241 214.091 26.583C215.08 26.925 215.947 27.397 216.686 28.0127C217.424 28.6215 218.006 29.3398 218.433 30.1539C218.86 30.9679 219.07 31.8298 219.07 32.7396C219.07 33.6495 218.853 34.5045 218.433 35.3254C218.006 36.1395 217.424 36.8441 216.686 37.4324C215.947 38.0207 215.08 38.4858 214.091 38.8279C213.103 39.1699 212.046 39.3409 210.928 39.3409ZM219.551 77.8404C220.404 78.1141 220.831 78.4971 220.831 78.9965C220.831 79.6806 220.357 79.9747 219.415 79.879C218.745 79.79 217.756 79.7216 216.448 79.6737C215.148 79.6259 213.482 79.6053 211.463 79.6053C209.445 79.6053 207.779 79.6259 206.478 79.6737C205.178 79.7216 204.162 79.79 203.451 79.879C202.55 79.9679 202.103 79.6737 202.103 78.9965C202.103 78.4971 202.53 78.1141 203.383 77.8404C204.101 77.6147 204.548 77.1495 204.731 76.4449C204.907 75.7403 205.002 74.7553 205.002 73.4829V52.0578C205.002 50.7923 204.914 49.8004 204.731 49.1026C204.548 48.398 204.101 47.9329 203.383 47.7071C202.53 47.4335 202.103 47.0299 202.103 46.4826C202.103 45.8464 202.509 45.4428 203.315 45.2581C203.898 45.1692 204.677 45.0187 205.639 44.8135C206.6 44.6083 207.671 44.3346 208.835 43.9994C210 43.6574 211.24 43.2538 212.54 42.775C213.841 42.2961 215.121 41.742 216.381 41.1058C217.37 40.6543 217.864 40.9485 217.864 41.9883V73.4829C217.864 74.7553 217.952 75.7403 218.135 76.4449C218.311 77.1495 218.785 77.6147 219.551 77.8404Z" fill="#9A863F"/>
<path d="M253.958 39.3409C255.394 39.3888 256.518 39.7582 257.324 40.4628C258.13 41.1674 258.672 42.0841 258.943 43.2196C259.214 44.3552 259.248 45.6344 259.045 47.0641C258.841 48.4938 258.449 49.9577 257.866 51.449L247.09 78.9281C246.866 79.6054 246.392 79.9474 245.674 79.9474H238.061C237.391 79.9474 236.917 79.6054 236.646 78.9281L225.199 47.5019C224.657 46.0517 224.19 45.0324 223.784 44.4373C223.377 43.849 222.774 43.418 221.968 43.1444C221.562 42.9665 221.264 42.7955 221.061 42.6313C220.858 42.474 220.756 42.2346 220.756 41.9199C220.756 41.3316 221.203 41.058 222.104 41.1058C222.91 41.1537 224.021 41.2084 225.436 41.2769C226.852 41.3453 228.633 41.3795 230.787 41.3795C232.805 41.3795 234.445 41.3589 235.704 41.3111C236.957 41.2632 237.946 41.1948 238.671 41.1058C239.565 41.0169 240.019 41.2905 240.019 41.9199C240.019 42.2824 239.917 42.5287 239.714 42.6655C239.511 42.8023 239.253 42.987 238.942 43.2128C238.447 43.4864 238.238 43.9584 238.305 44.6425C238.373 45.3197 238.583 46.2774 238.942 47.5019L246.149 72.3268L252.685 53.8296C253.091 52.694 253.152 51.7568 252.888 51.0043C252.617 50.2587 252.238 49.5541 251.743 48.8974C251.249 48.2407 250.72 47.584 250.158 46.9273C249.596 46.2706 249.251 45.4428 249.115 44.4441C249.027 43.8079 249.068 43.1786 249.251 42.5424C249.427 41.9062 249.725 41.3521 250.124 40.8733C250.531 40.3944 251.059 40.0113 251.709 39.7172C252.359 39.423 253.111 39.2999 253.965 39.3409" fill="#9A863F"/>
<path d="M277.529 42.8776C276.316 43.1512 275.381 43.8626 274.731 45.0187C274.081 46.1748 273.661 47.6114 273.485 49.3352C273.302 51.0591 273.316 52.995 273.519 55.1498C273.722 57.3046 274.047 59.5347 274.494 61.8469C274.941 64.2069 275.503 66.4165 276.181 68.4755C276.851 70.5414 277.63 72.3337 278.504 73.8455C279.378 75.3641 280.353 76.5134 281.437 77.2795C282.514 78.0525 283.679 78.3261 284.938 78.0936C286.151 77.8199 287.072 77.1085 287.702 75.9524C288.332 74.7963 288.731 73.3598 288.914 71.6359C289.09 69.9121 289.083 67.9762 288.88 65.8213C288.677 63.6665 288.379 61.4364 287.973 59.1243C287.526 56.8121 286.963 54.6094 286.286 52.523C285.616 50.4366 284.837 48.6443 283.963 47.153C283.089 45.6549 282.114 44.5125 281.037 43.719C279.96 42.9255 278.788 42.645 277.535 42.8707M281.172 40.2166C284.227 40.2166 286.984 40.7501 289.456 41.8173C291.928 42.8844 294.021 44.3347 295.755 46.168C297.482 48.0013 298.81 50.1493 299.731 52.5982C300.652 55.0472 301.113 57.674 301.113 60.4856C301.113 63.2971 300.652 65.9239 299.731 68.3729C298.81 70.8219 297.482 72.963 295.755 74.8032C294.028 76.6365 291.928 78.0936 289.456 79.1539C286.984 80.221 284.227 80.7546 281.172 80.7546C278.118 80.7546 275.3 80.221 272.855 79.1539C270.41 78.0867 268.317 76.6365 266.59 74.8032C264.863 72.963 263.535 70.8219 262.614 68.3729C261.693 65.9239 261.232 63.2971 261.232 60.4856C261.232 57.674 261.707 55.0472 262.648 52.5982C263.589 50.1493 264.917 48.0081 266.624 46.168C268.331 44.3347 270.403 42.8776 272.855 41.8173C275.3 40.7501 278.077 40.2166 281.172 40.2166Z" fill="#9A863F"/>
<path d="M346.492 77.8405C347.346 78.1141 347.772 78.4972 347.772 78.9965C347.772 79.6806 347.298 79.9748 346.357 79.879C345.686 79.7901 344.697 79.7217 343.397 79.6738C342.096 79.6259 340.43 79.6054 338.412 79.6054C336.394 79.6054 334.727 79.6259 333.427 79.6738C332.126 79.7217 331.138 79.7901 330.467 79.879C329.526 79.9679 329.051 79.6738 329.051 78.9965C329.051 78.4972 329.478 78.1141 330.332 77.8405C331.097 77.6147 331.557 77.1495 331.713 76.445C331.869 75.7404 331.95 74.7553 331.95 73.4829V56.3401C331.95 55.0267 331.869 53.768 331.713 52.564C331.557 51.3601 331.253 50.3066 330.806 49.4036C330.359 48.4938 329.749 47.7687 328.99 47.2283C328.225 46.681 327.263 46.4142 326.098 46.4142C324.933 46.4142 323.863 46.6879 323.037 47.2283C322.204 47.7687 321.533 48.5007 321.019 49.4036C320.504 50.3134 320.131 51.3396 319.908 52.4956C319.684 53.6517 319.569 54.8215 319.569 55.9981V73.4761C319.569 74.7485 319.657 75.7335 319.84 76.4381C320.016 77.1427 320.49 77.6079 321.256 77.8336C322.062 78.1072 322.468 78.4903 322.468 78.9897C322.468 79.6738 322.021 79.9679 321.12 79.8722C320.45 79.7832 319.461 79.7148 318.16 79.6669C316.86 79.619 315.194 79.5985 313.175 79.5985C311.157 79.5985 309.491 79.619 308.19 79.6669C306.89 79.7148 305.881 79.7832 305.163 79.8722C304.262 79.9611 303.815 79.6669 303.815 78.9897C303.815 78.675 303.923 78.4356 304.153 78.2783C304.377 78.1209 304.668 77.9704 305.027 77.8336C305.793 77.6079 306.26 77.1427 306.443 76.4381C306.619 75.7335 306.714 74.7485 306.714 73.4761V52.051C306.714 50.7376 306.626 49.7251 306.443 49.0274C306.267 48.3228 305.793 47.8576 305.027 47.6319C304.174 47.4061 303.747 47.0231 303.747 46.4758C303.747 45.8396 304.126 45.4565 304.892 45.3197C306.057 45.094 307.764 44.663 310.012 44.0268C312.254 43.3906 314.679 42.4193 317.287 41.099C317.734 40.8733 318.086 40.8391 318.33 40.9964C318.573 41.1537 318.743 41.4821 318.831 41.9815L319.44 47.2214C319.887 46.3116 320.45 45.4429 321.12 44.6015C321.791 43.76 322.603 43.0144 323.545 42.3577C324.486 41.701 325.59 41.1811 326.843 40.7912C328.103 40.4081 329.539 40.2097 331.151 40.2097C336.001 40.2097 339.502 41.5573 341.656 44.2594C343.81 46.9547 344.887 50.9838 344.887 56.3333V73.4761C344.887 74.7485 344.961 75.7335 345.124 76.4381C345.28 77.1427 345.74 77.6079 346.506 77.8336" fill="#9A863F"/>
<path d="M369.731 54.9171C370.76 54.9171 371.607 54.8829 372.257 54.8145C372.907 54.7461 373.415 54.5888 373.774 54.3357C374.133 54.0894 374.37 53.72 374.479 53.248C374.587 52.7692 374.648 52.1056 374.648 51.2437C374.648 50.2928 374.526 49.2804 374.276 48.2201C374.032 47.1529 373.666 46.1816 373.199 45.2923C372.725 44.4098 372.142 43.671 371.444 43.0827C370.747 42.4944 369.927 42.2003 368.986 42.2003C368.044 42.2003 367.11 42.5491 366.324 43.2537C365.538 43.9583 364.854 44.8887 364.272 46.0447C363.689 47.2008 363.235 48.5484 362.924 50.0944C362.612 51.6336 362.45 53.248 362.45 54.924H369.724L369.731 54.9171ZM356.124 29.0729C355.765 28.8951 355.514 28.6215 355.385 28.2589C355.25 27.8963 355.23 27.5543 355.318 27.2396C355.406 26.925 355.622 26.6718 355.954 26.494C356.293 26.3161 356.754 26.3161 357.336 26.494L369.392 30.2359L381.516 26.494C382.099 26.3161 382.559 26.3161 382.898 26.494C383.236 26.6718 383.446 26.925 383.541 27.2396C383.629 27.5543 383.609 27.8963 383.473 28.2589C383.338 28.6215 383.094 28.8951 382.735 29.0729C381.794 29.6612 380.873 30.2837 379.972 30.9473C379.071 31.6108 378.231 32.2265 377.445 32.8148C376.66 33.4031 375.928 33.9504 375.258 34.4497C374.587 34.9491 374.025 35.3596 373.578 35.6742C372.948 36.1736 372.318 36.7072 371.695 37.2749C371.065 37.8427 370.3 38.1232 369.406 38.1232C368.512 38.1232 367.746 37.8427 367.116 37.2749C366.487 36.7072 365.857 36.1736 365.233 35.6742C364.333 35.038 363.066 34.0872 361.427 32.8148C359.788 31.5493 358.027 30.2974 356.144 29.0729M369.006 40.2301C371.431 40.1823 373.537 40.4559 375.339 41.0442C377.134 41.6325 378.685 42.4192 379.985 43.3905C381.286 44.3688 382.356 45.4564 383.182 46.6536C384.015 47.8575 384.652 49.082 385.099 50.327C385.546 51.572 385.831 52.776 385.939 53.9321C386.054 55.0882 386.041 56.0732 385.905 56.8941C385.77 57.7081 385.323 58.1186 384.557 58.1186H362.599C362.687 58.5701 362.768 59.0147 362.836 59.4457C362.904 59.8767 362.978 60.3213 363.073 60.7728C363.608 63.4065 364.522 65.6365 365.802 67.4698C367.083 69.31 368.607 70.7123 370.381 71.6906C372.156 72.6688 374.154 73.1887 376.375 73.2571C378.597 73.3255 380.92 72.9082 383.345 71.9984C384.11 71.7248 384.645 71.7521 384.964 72.0668C385.323 72.5183 385.275 73.0655 384.828 73.7017C384.422 74.249 383.826 74.9125 383.047 75.7061C382.261 76.4996 381.272 77.2726 380.08 78.0182C378.888 78.7639 377.466 79.4137 375.806 79.9541C374.147 80.4946 372.237 80.7682 370.083 80.7682C367.347 80.7682 364.8 80.303 362.443 79.3727C360.086 78.4423 358.02 77.1494 356.246 75.494C354.471 73.8385 353.055 71.8547 352.006 69.5426C350.949 67.2304 350.312 64.6925 350.089 61.922C349.865 58.9737 350.163 56.1963 350.996 53.59C351.829 50.9837 353.083 48.6921 354.769 46.722C356.456 44.7518 358.508 43.1853 360.933 42.0292C363.357 40.8732 366.053 40.2712 369.013 40.2233" fill="#9A863F"/>
</g>
</g>
<defs>
<clipPath id="clip0_188_44">
<rect width="386" height="98" fill="white"/>
</clipPath>
</defs>
</svg>
