<svg width="274" height="88" viewBox="0 0 274 88" fill="none" xmlns="http://www.w3.org/2000/svg">
<g clip-path="url(#clip0_501_194)">
<mask id="mask0_501_194" style="mask-type:luminance" maskUnits="userSpaceOnUse" x="10" y="18" width="254" height="52">
<path d="M264 18H10V70H264V18Z" fill="white"/>
</mask>
<g mask="url(#mask0_501_194)">
<path d="M65.8485 18.6897V20.5687C65.8485 20.9333 66.1369 21.2249 66.503 21.2361C80.4193 21.64 91.213 34.877 87.6909 49.6283C85.7551 57.722 79.4265 64.1273 71.4228 66.0792C56.8353 69.6409 43.7453 58.726 43.346 44.6533C43.3349 44.2887 43.0465 43.9914 42.686 43.9914H40.8279C40.4507 43.9914 40.1401 44.3055 40.1512 44.6813C40.5672 60.6442 55.2767 73.0679 71.7833 69.3099C81.268 67.1505 88.7614 59.5785 90.8913 49.9873C94.6075 33.3065 82.3218 18.4261 66.5362 18.011C66.1591 17.9998 65.854 18.3139 65.854 18.6953" fill="#0E1E3B"/>
<path d="M31.9534 34.092C39.2915 31.4727 46.1693 36.9413 46.1693 44.0029C46.1693 56.5893 57.7838 66.4834 70.7462 63.3031C77.7293 61.5868 83.2481 56.0059 84.9399 48.9444C88.0238 36.0776 78.65 24.5289 66.5363 24.1082C66.1591 24.097 65.8541 24.4111 65.8541 24.7869V26.6659C65.8541 27.036 66.1425 27.3277 66.5086 27.3389C76.7365 27.7428 84.6015 37.62 81.7506 48.5181C80.2807 54.1382 75.8767 58.586 70.3246 60.0724C59.3202 63.0171 49.3696 54.6598 49.3696 43.9973C49.3696 34.9558 40.7281 27.9166 31.3599 30.8781C27.2665 32.1738 24.0162 35.4606 22.7405 39.5943C19.8896 48.8154 26.4068 57.3353 34.9985 57.784C35.3867 57.8064 35.714 57.4979 35.714 57.1053V55.2263C35.714 54.873 35.4477 54.5701 35.1038 54.5532C28.4202 54.1606 23.4006 47.3963 25.9187 40.1945C26.9115 37.3564 29.1524 35.0904 31.9589 34.0864" fill="#0E1E3B"/>
<path d="M19.8119 39.4818C21.2817 33.8617 25.6857 29.4139 31.2378 27.9275C42.2423 24.9829 52.1928 33.3401 52.1928 44.0026C52.1928 53.0441 60.8344 60.0833 70.2026 57.1218C74.2959 55.8261 77.5462 52.5393 78.8219 48.4056C81.6673 39.1846 75.1557 30.6647 66.564 30.2159C66.1757 30.1935 65.8429 30.4964 65.8429 30.8946V32.7736C65.8429 33.127 66.1092 33.4298 66.4531 33.4467C73.1367 33.8393 78.1563 40.6036 75.6382 47.8054C74.6454 50.6435 72.4045 52.9095 69.598 53.9135C62.2599 56.5328 55.3821 51.0642 55.3821 44.0026C55.3821 31.4162 43.7676 21.5222 30.8052 24.7024C23.8221 26.4187 18.3032 31.9996 16.6115 39.0612C13.5276 51.9223 22.8958 63.4766 35.0151 63.8973C35.3922 63.9085 35.6973 63.6 35.6973 63.2186V61.3397C35.6973 60.9695 35.4089 60.6778 35.0428 60.6666C24.8149 60.2628 16.9499 50.3855 19.8008 39.4874" fill="#0E1E3B"/>
<path d="M13.8658 38.366C15.8015 30.2723 22.1302 23.867 30.1339 21.9151C44.7214 18.3534 57.8113 29.2683 58.2107 43.341C58.2218 43.7056 58.5102 44.0029 58.8707 44.0029H60.7288C61.106 44.0029 61.4166 43.6888 61.4055 43.3074C60.9895 27.3445 46.28 14.9208 29.7734 18.6788C20.2943 20.8326 12.8008 28.4102 10.6654 38.0014C6.94921 54.6934 19.2404 69.5682 35.0204 69.9889C35.3976 70.0001 35.7082 69.686 35.7082 69.3046V67.4256C35.7082 67.061 35.4142 66.7638 35.0537 66.7581C21.1374 66.3543 10.3437 53.1173 13.8658 38.366Z" fill="#0E1E3B"/>
<path d="M158.798 30.0647C156.086 30.0647 153.39 31.2762 151.909 32.3139C151.493 32.6111 151.144 32.5999 150.927 32.5494C150.622 32.4709 150.362 32.2409 150.195 31.91L150.018 31.495C149.779 30.9116 149.313 30.6312 148.598 30.6312H145.031C143.989 30.6312 143.528 31.1023 143.528 32.1512V57.6268C143.528 58.7093 143.966 59.1468 145.031 59.1468H149.153C150.223 59.1468 150.656 58.7037 150.656 57.6268V40.099C150.656 39.067 151.066 38.1808 151.837 37.5301C152.802 36.6776 154.566 36.212 155.731 36.212C158.033 36.212 159.297 37.6143 159.297 40.1551V57.6268C159.297 58.7093 159.735 59.1468 160.8 59.1468H164.921C165.992 59.1468 166.425 58.7037 166.425 57.6268V37.7264C166.425 33.3571 163.141 30.0591 158.787 30.0591" fill="#0E1E3B"/>
<path d="M128.153 53.5157C127 53.5157 125.973 53.0277 125.263 52.1471C125.141 51.9957 125.019 51.7601 124.897 51.4292C124.57 50.5598 124.687 49.5838 125.208 48.8154C125.729 48.047 126.589 47.5927 127.51 47.5927H130.644C131.581 47.5927 132.036 48.0694 132.036 49.0566C132.036 51.6872 130.444 53.5213 128.159 53.5213M127.26 31.1306C123.943 31.1306 121.442 32.4263 119.234 33.5761L119.057 33.6658C118.119 34.165 117.842 34.7764 118.158 35.657L119.262 38.209C119.478 38.6914 119.75 38.9999 120.077 39.1177C120.366 39.2242 120.704 39.185 121.087 38.9999C121.27 38.9101 121.47 38.8092 121.68 38.7026C122.967 38.0464 124.737 37.1489 126.678 37.1489C128.619 37.1489 131.248 38.0576 131.864 40.6208C131.991 41.2715 131.82 41.6529 131.653 41.8604C131.437 42.1296 131.104 42.2699 130.694 42.2699H126.395C124.01 42.2699 121.741 43.3187 120.172 45.1416C118.602 46.9701 117.892 49.3875 118.225 51.7825C118.375 52.8594 118.463 53.196 118.508 53.2969C120.072 57.3185 123.017 59.2704 127.526 59.2704C135.086 59.2704 139.086 54.2561 139.086 44.7714C139.086 33.492 132.657 31.125 127.26 31.125" fill="#0E1E3B"/>
<path d="M204.868 36.8741C206.022 36.8741 207.048 37.3621 207.758 38.2483C207.88 38.3997 208.002 38.6353 208.124 38.9662C208.451 39.8356 208.334 40.8115 207.813 41.58C207.292 42.3484 206.432 42.8027 205.511 42.8027H202.377C201.44 42.8027 200.985 42.3259 200.985 41.3388C200.985 38.7082 202.577 36.8741 204.862 36.8741M213.753 52.1864C213.537 51.704 213.265 51.3955 212.938 51.2777C212.65 51.1712 212.311 51.2104 211.929 51.3955C211.746 51.4853 211.546 51.5862 211.335 51.6928C210.043 52.349 208.279 53.2465 206.338 53.2465C204.396 53.2465 201.767 52.3378 201.152 49.7746C201.024 49.1239 201.196 48.7425 201.362 48.535C201.579 48.2658 201.912 48.1255 202.322 48.1255H206.621C209.006 48.1255 211.274 47.0767 212.844 45.2538C214.414 43.4253 215.123 41.0079 214.791 38.6129C214.641 37.536 214.552 37.205 214.513 37.0985C212.949 33.0769 209.998 31.125 205.495 31.125C197.935 31.125 193.936 36.1393 193.936 45.624C193.936 56.9034 200.364 59.2704 205.761 59.2704C209.078 59.2704 211.579 57.9747 213.787 56.8249L213.964 56.7352C214.902 56.236 215.179 55.6246 214.857 54.744L213.753 52.192V52.1864Z" fill="#0E1E3B"/>
<path d="M229.423 36.8741C230.576 36.8741 231.602 37.3621 232.312 38.2483C232.434 38.3997 232.556 38.6353 232.678 38.9662C233.006 39.8356 232.895 40.8115 232.368 41.58C231.846 42.3484 230.987 42.8027 230.066 42.8027H226.932C225.995 42.8027 225.54 42.3259 225.54 41.3388C225.54 38.7082 227.132 36.8741 229.417 36.8741M238.308 52.1864C238.092 51.704 237.82 51.3955 237.493 51.2777C237.204 51.1712 236.866 51.2104 236.483 51.3955C236.3 51.4853 236.101 51.5862 235.89 51.6928C234.603 52.349 232.834 53.2465 230.892 53.2465C228.951 53.2465 226.322 52.3378 225.706 49.7746C225.579 49.1239 225.751 48.7425 225.917 48.535C226.133 48.2658 226.466 48.1255 226.877 48.1255H231.175C233.56 48.1255 235.829 47.0767 237.399 45.2538C238.968 43.4253 239.678 41.0079 239.345 38.6129C239.196 37.536 239.107 37.205 239.068 37.0985C237.504 33.0769 234.553 31.125 230.049 31.125C222.489 31.125 218.49 36.1393 218.49 45.624C218.49 56.9034 224.919 59.2704 230.316 59.2704C233.632 59.2704 236.134 57.9747 238.336 56.8249L238.513 56.7352C239.451 56.236 239.728 55.6246 239.406 54.744L238.303 52.192L238.308 52.1864Z" fill="#0E1E3B"/>
<path d="M189.831 53.6782H185.932C183.902 53.6782 182.254 52.0123 182.254 49.9595V38.7473C182.254 38.2481 182.654 37.8443 183.147 37.8443H189.276C189.709 37.8443 190.058 37.4909 190.058 37.0534V32.5439C190.058 32.112 189.709 31.753 189.276 31.753H183.208C182.526 31.753 182.11 30.7266 182.11 30.1657V28.9093C182.11 28.3821 181.683 27.9502 181.162 27.9502H177.007C176.486 27.9502 176.059 28.3821 176.059 28.9093V30.1657C176.059 30.7266 175.643 31.753 174.961 31.753H170.435C170.002 31.753 169.653 32.1064 169.653 32.5383V37.0478C169.653 37.4797 170.002 37.8387 170.435 37.8387H174.783C175.277 37.8387 175.676 38.2425 175.676 38.7417V50.0717C175.676 55.5796 180.091 60.0443 185.544 60.0443H189.837C190.269 60.0443 190.619 59.6909 190.619 59.2534V54.4634C190.619 54.0259 190.269 53.6726 189.837 53.6726" fill="#0E1E3B"/>
<path d="M257.793 51.1263C257.793 45.7754 244.038 49.6961 244.038 39.5215C244.038 35.0176 247.305 31.1475 253.883 31.1475C260.461 31.1475 263.623 34.5913 263.623 39.5215C263.623 40.475 263.14 40.9518 262.231 40.9518H258.803C257.838 40.9518 257.411 40.475 257.411 39.5215C257.411 37.7211 256.179 36.4983 253.877 36.4983C251.576 36.4983 250.239 37.5584 250.239 39.3084C250.239 44.5022 263.994 40.6882 263.994 50.9132C263.994 55.5237 260.356 59.3938 253.933 59.3938C247.51 59.3938 243.977 55.8434 243.977 50.9693C243.977 49.9597 244.459 49.539 245.369 49.539H248.791C249.756 49.539 250.183 50.0158 250.183 50.9693C250.183 52.7192 251.626 54.0429 253.927 54.0429C256.229 54.0429 257.782 52.9829 257.782 51.1263" fill="#0E1E3B"/>
</g>
</g>
<defs>
<clipPath id="clip0_501_194">
<rect width="254" height="52" fill="white" transform="translate(10 18)"/>
</clipPath>
</defs>
</svg>
