<svg width="210" height="88" viewBox="0 0 210 88" fill="none" xmlns="http://www.w3.org/2000/svg">
<g clip-path="url(#clip0_501_193)">
<path d="M189.342 8H17.6646C17.6646 8 6 8 6 19.5969V49.9549C6 49.9549 6 61.5518 17.6646 61.5518H189.342C189.342 61.5518 201.007 61.5518 201.007 49.9549V19.5969C201.007 19.5969 201.007 8 189.342 8Z" fill="white"/>
<path d="M126.632 43.41C127.773 43.41 128.718 42.6473 128.993 41.7868C129.052 41.5521 129.085 41.2523 129.085 40.9654V39.6226C127.859 39.6552 126.816 39.8442 126.128 40.1897C125.354 40.5939 125.026 41.0241 125.006 41.8715C125.059 43.0058 125.57 43.3383 126.632 43.41Z" fill="white"/>
<path d="M195.676 23.2539V49.2704C195.676 56.0108 189.368 56.2455 188.653 56.252H18.353C11.5732 56.252 11.3372 49.981 11.3306 49.2704V20.0728C11.3306 13.3323 17.6383 13.0977 18.353 13.0912H185.467C186.365 11.9764 187.578 11.1355 188.981 10.6988C188.87 10.6988 188.771 10.6792 188.653 10.6792H18.353C15.0877 10.6792 8.91113 12.6414 8.91113 20.0663V49.2704C8.91113 52.5168 10.8847 58.6575 18.353 58.6575H188.653C191.919 58.6575 198.095 56.6953 198.095 49.2704V20.0728C198.095 19.975 198.089 19.8707 198.082 19.7664C197.643 21.1549 196.79 22.3674 195.669 23.2539" fill="#0057A8"/>
<path d="M190.686 15.5098H190.339V17.322H190.811C191.191 17.322 191.473 17.2307 191.676 17.0743C191.879 16.9113 191.971 16.7027 191.978 16.3898C191.971 15.7966 191.617 15.5293 190.686 15.5098Z" fill="white"/>
<path d="M188.791 14.7795V20.2748C188.791 20.4704 188.968 20.6203 189.165 20.6203H189.971C190.162 20.6203 190.332 20.4704 190.332 20.2748V18.43H190.876L192.26 20.3921C192.365 20.5421 192.542 20.6203 192.745 20.6203H193.656C193.774 20.6203 193.938 20.5355 193.938 20.3791C193.938 20.2944 193.906 20.2357 193.86 20.1835L192.352 18.1497C193.125 17.8042 193.552 17.1914 193.545 16.3766C193.545 15.8616 193.381 15.4248 193.034 15.0793C192.568 14.61 191.768 14.4079 190.653 14.4014H189.198C188.975 14.4014 188.798 14.5643 188.798 14.7795M191.683 17.0741C191.48 17.2305 191.191 17.3218 190.817 17.3218H190.345V15.5096H190.693C191.624 15.5291 191.971 15.7964 191.984 16.3896C191.984 16.7025 191.886 16.9111 191.689 17.0741" fill="#0057A8"/>
<path d="M56.8876 27.5497C59.1169 27.5497 60.684 25.9461 60.684 23.9969H60.0152L60.684 23.9839C60.6775 21.9957 59.1104 20.379 56.9204 20.4116C55.8516 20.4116 54.9075 20.7701 54.2387 21.4025C53.5633 22.0348 53.1896 22.9409 53.1961 23.9187C53.1961 23.9383 53.1961 23.9578 53.1961 23.9774C53.1961 24.0295 53.1961 24.0556 53.1961 24.0687C53.2027 25.9852 54.7567 27.5432 56.8811 27.5432" fill="#0057A8"/>
<path d="M60.5002 28.4951H53.3599V48.3839H60.5002V28.4951Z" fill="#0057A8"/>
<path d="M81.4559 42.1455L82.1837 41.2524L86.3931 48.3774H95.1858L87.1275 36.7219L94.4449 28.4886H85.6194L81.646 34.3621C81.5804 34.4598 81.5214 34.5576 81.4624 34.6554V20.1055H74.322V48.384H81.4624V42.1455H81.4559Z" fill="#0057A8"/>
<path d="M27.6309 38.0322C27.7292 36.3503 27.8079 34.4533 27.8866 32.5368C28.2997 34.3034 28.7455 36.0374 29.1783 37.615L32.0633 47.9668H37.6104L40.8888 37.5237C41.4592 35.8093 42.0493 33.8732 42.6067 31.9241C42.6526 34.0753 42.7181 36.1287 42.7837 37.9539L43.1902 48.3905H50.2322L48.7438 21.481H40.0233L37.1251 30.4443C36.5154 32.5107 35.8925 34.8314 35.3155 37.0739C34.8237 34.8575 34.2467 32.6085 33.6697 30.5095L31.0076 21.481H22.1297L20.3987 48.3905H27.1325L27.6243 38.0387L27.6309 38.0322Z" fill="#0057A8"/>
<path d="M70.9519 20.1055H63.8115V48.3774H70.9519V20.1055Z" fill="#0057A8"/>
<path d="M175.277 35.2682V48.384H182.418V38.3059C182.418 37.8887 182.457 37.465 182.523 37.1456C182.864 35.6723 183.932 34.7858 185.834 34.7597C186.431 34.7597 186.857 34.8314 187.217 34.9292L188.063 35.1574V28.267L187.513 28.1692C187.034 28.0845 186.693 28.0845 186.168 28.0845C184.614 28.0845 182.792 28.8211 181.526 30.4508L181.415 28.5017H175.074L175.107 29.1992C175.186 30.7898 175.258 32.5564 175.258 35.2747" fill="#008C44"/>
<path d="M139.818 40.9979C139.818 43.6967 140.356 45.6653 141.608 46.9626C142.677 48.0643 144.408 48.8009 146.441 48.8009C148.152 48.8009 149.568 48.5727 150.473 48.2207L150.899 48.0512L150.853 42.4255L150.06 42.5885C149.509 42.6928 149.26 42.7254 148.473 42.7254C147.706 42.7058 147.457 42.5494 147.228 42.2299C146.998 41.904 146.841 41.2 146.854 40.1244V34.0749H151.011V28.4949H146.854V23.2407L146.001 23.4689L139.825 25.1638V28.4949H137.34V34.0815H139.825V41.0044L139.818 40.9979Z" fill="#008C44"/>
<path d="M96.7988 35.079V48.3839H103.939V37.0151C103.939 36.5458 104.018 36.0699 104.123 35.8222C104.464 34.9095 105.185 34.0751 106.444 34.0751C108.07 34.1077 108.634 35.1247 108.713 37.4323V48.3774H115.86V36.7087C115.86 33.8665 115.112 31.6958 113.774 30.2225C112.437 28.7558 110.555 28.0648 108.503 28.0713C106.044 28.0713 104.26 29.1078 103.139 30.1834L102.962 28.4885H96.6152L96.648 29.186C96.7267 30.8157 96.7988 32.7779 96.7988 35.079Z" fill="#008C44"/>
<path d="M160.164 48.8011H160.184C162.787 48.8011 164.544 47.7321 165.619 46.6565L165.796 48.3774H172.143L172.111 47.6799C172.032 46.1284 171.96 44.1728 171.96 41.7543V28.4951H164.787V40.2029C164.787 40.6201 164.734 41.0047 164.649 41.1872C164.315 41.9564 163.62 42.8039 162.361 42.8039C160.839 42.7843 160.203 41.7739 160.125 39.1403V28.4951H152.945V40.0529C152.945 43.019 153.666 45.2158 154.978 46.6825C156.282 48.1493 158.138 48.8011 160.158 48.8011" fill="#008C44"/>
<path d="M117.945 42.4389C117.951 45.7309 120.521 48.7947 124.652 48.8012H124.659C126.58 48.8012 128.337 48.2276 129.662 47.1324L129.891 48.384H136.487L136.337 47.5952C136.16 46.663 136.081 44.9616 136.081 43.2081V36.7545C136.081 34.4794 135.569 32.3087 134.147 30.679C132.724 29.0493 130.435 28.078 127.203 28.0845C123.682 28.0845 121.033 29.0167 119.623 29.7989L119.158 30.0532L120.62 35.1313L121.374 34.662C122.462 33.9775 124.416 33.3517 126.173 33.3582C128.344 33.4364 128.724 34.0622 128.842 34.688C125.754 34.7532 123.144 35.3399 121.21 36.5394C119.158 37.804 117.925 39.8574 117.938 42.4454M126.128 40.1964C126.816 39.8509 127.859 39.6619 129.085 39.6293V40.9721C129.085 41.2655 129.052 41.5588 128.993 41.7935C128.718 42.654 127.773 43.4232 126.632 43.4167C125.57 43.3515 125.059 43.019 125.006 41.8783C125.026 41.0243 125.354 40.6006 126.128 40.1964Z" fill="#008C44"/>
<path d="M37.5777 72.8097V72.7771C37.5777 71.7862 37.263 70.9583 36.6729 70.3782C35.9779 69.6872 34.9353 69.3091 33.5912 69.3091H28.7588V79.8174H31.0865V76.4537H32.9158L35.1779 79.8174H37.899L35.3156 76.0625C36.6598 75.5671 37.5777 74.5046 37.5777 72.8032M35.2238 72.9205C35.2238 73.807 34.5747 74.4068 33.4404 74.4068H31.0865V71.3886H33.3945C34.5288 71.3886 35.2238 71.897 35.2238 72.8879V72.9205Z" fill="#008C44"/>
<path d="M46.0491 69.1265C42.7903 69.1265 40.4167 71.571 40.4167 74.5631V74.5957C40.4167 77.5813 42.7575 79.9998 46.0163 79.9998C49.275 79.9998 51.6486 77.5553 51.6486 74.5697V74.5371C51.6486 71.5515 49.3078 69.133 46.0491 69.133M49.2226 74.5957C49.2226 76.3949 47.9243 77.8682 46.0491 77.8682C44.1738 77.8682 42.8493 76.3688 42.8493 74.5631V74.5305C42.8493 72.7314 44.1476 71.2581 46.0228 71.2581C47.8981 71.2581 49.2226 72.7574 49.2226 74.5631V74.5957Z" fill="#008C44"/>
<path d="M59.0447 69.3091H54.9204V79.8174H59.0447C62.3624 79.8174 64.6573 77.5228 64.6573 74.5632V74.5306C64.6573 71.5776 62.3624 69.3091 59.0447 69.3091ZM62.2313 74.5893C62.2313 76.4472 60.9461 77.7248 59.0447 77.7248H57.2481V71.3886H59.0447C60.9461 71.3886 62.2313 72.6923 62.2313 74.5567V74.5893Z" fill="#008C44"/>
<path d="M70.3748 69.3091H68.0471V79.8174H70.3748V69.3091Z" fill="#008C44"/>
<path d="M81.3052 75.7822L76.3548 69.3091H74.2107V79.8174H76.5056V73.1356L81.6199 79.8174H83.6001V69.3091H81.3052V75.7822Z" fill="#008C44"/>
<path d="M94.4253 75.7822L89.4749 69.3091H87.3308V79.8174H89.6257V73.1356L94.74 79.8174H96.7202V69.3091H94.4253V75.7822Z" fill="#008C44"/>
<path d="M108.018 66.832L106.038 65.978L104.208 68.3378H105.965L108.018 66.832Z" fill="#008C44"/>
<path d="M104.077 69.2373L99.5461 79.8173H101.913L102.877 77.464H107.349L108.313 79.8173H110.745L106.214 69.2373H104.07H104.077ZM103.716 75.4236L105.119 72.0143L106.523 75.4236H103.716Z" fill="#008C44"/>
<path d="M119.309 79.8174H121.636V75.7496H126.678V73.6506H121.636V71.4081H127.36V69.3091H119.309V79.8174Z" fill="#008C44"/>
<path d="M132.842 69.2373L128.311 79.8173H130.678L131.642 77.464H136.114L137.078 79.8173H139.51L134.979 69.2373H132.835H132.842ZM132.481 75.4236L133.884 72.0143L135.287 75.4236H132.481Z" fill="#008C44"/>
<path d="M151.155 72.8097V72.7771C151.155 71.7862 150.84 70.9583 150.25 70.3782C149.555 69.6872 148.513 69.3091 147.169 69.3091H142.336V79.8174H144.657V76.4537H146.487L148.749 79.8174H151.463L148.88 76.0625C150.224 75.5671 151.142 74.5046 151.142 72.8032M148.788 72.9205C148.788 73.807 148.139 74.4068 147.005 74.4068H144.651V71.3886H146.959C148.093 71.3886 148.788 71.897 148.788 72.8879V72.9205Z" fill="#008C44"/>
<path d="M159.751 73.7549L156.971 69.3091H154.466V79.8174H156.742V73.0052L159.686 77.4445H159.751L162.721 72.9596V79.8174H165.029V69.3091H162.525L159.751 73.7549Z" fill="#008C44"/>
<path d="M174.543 69.2373H172.399L167.868 79.8173H170.235L171.199 77.464H175.671L176.635 79.8173H179.067L174.537 69.2373H174.543ZM172.039 75.4236L173.442 72.0143L174.845 75.4236H172.039Z" fill="#008C44"/>
<path d="M197.21 17.6085C197.21 14.2839 194.489 11.5786 191.139 11.5786C187.788 11.5786 185.08 14.2839 185.08 17.6085C185.08 20.9331 187.801 23.6384 191.139 23.6384C194.476 23.6384 197.21 20.9331 197.21 17.6085ZM186.818 17.6085C186.818 15.2357 188.752 13.3191 191.145 13.3191C193.538 13.3191 195.473 15.2357 195.473 17.6085C195.473 19.9813 193.538 21.8979 191.145 21.8979C188.752 21.8979 186.818 19.9813 186.818 17.6085Z" fill="#0057A8"/>
</g>
<defs>
<clipPath id="clip0_501_193">
<rect width="195" height="72" fill="white" transform="translate(6 8)"/>
</clipPath>
</defs>
</svg>
